{"glyphs":{"0":{"ha":854,"x_min":0,"x_max":0,"o":"m 149 411 b 218 158 151 319 171 231 b 310 71 242 122 274 92 b 426 40 344 51 386 40 b 432 40 426 40 431 40 b 550 78 474 42 515 56 b 636 168 585 100 614 132 b 694 417 686 251 694 349 b 629 683 694 514 678 606 b 536 776 606 721 574 754 b 415 810 500 797 457 810 b 410 810 415 810 411 810 b 286 769 372 808 328 797 b 199 675 250 746 221 713 b 144 438 153 594 144 503 l 144 428 b 144 411 144 421 144 415 m 64 438 b 131 715 64 532 81 629 b 244 839 158 764 196 807 b 410 892 300 876 360 890 b 418 892 413 892 415 892 b 582 846 476 892 533 875 b 701 725 632 815 672 772 b 779 413 761 629 779 519 b 708 121 779 314 763 211 b 596 3 681 75 643 33 b 435 -47 549 -28 493 -46 b 426 -47 432 -47 429 -47 b 269 -4 371 -47 317 -32 b 149 111 219 25 179 65 b 65 408 89 201 68 307 b 65 428 65 413 65 417 "},"1":{"ha":442,"x_min":0,"x_max":0,"o":"m 261 886 b 317 871 281 897 306 890 b 301 815 328 851 321 826 l 86 690 b 31 706 67 679 42 686 b 46 761 19 725 26 750 l 261 886 m 324 0 b 282 -42 324 -24 306 -42 b 240 0 258 -42 240 -24 l 240 697 b 282 739 240 721 258 739 b 324 697 306 739 324 721 l 324 0 "},"2":{"ha":713,"x_min":0,"x_max":0,"o":"m 231 -42 b 189 0 207 -42 189 -24 b 231 42 189 24 207 42 l 586 42 b 628 0 610 42 628 24 b 586 -42 628 -24 610 -42 l 231 -42 m 79 32 b 136 225 79 100 100 167 b 310 397 181 296 246 350 b 481 539 374 444 438 488 b 524 613 500 563 515 588 b 532 663 529 629 532 646 b 529 688 532 671 531 679 b 475 772 524 719 504 750 b 367 808 440 799 399 808 l 364 808 b 253 772 331 808 289 799 b 190 685 221 750 199 718 b 140 654 185 663 163 649 b 110 704 118 660 104 682 b 206 839 124 758 158 806 b 367 888 258 875 318 888 l 369 888 b 526 836 417 888 476 874 b 613 701 571 803 601 754 b 617 660 615 688 617 674 b 604 582 617 633 613 607 b 546 482 592 544 571 511 b 361 325 492 417 422 371 b 208 175 267 256 231 210 b 164 25 179 129 164 76 b 164 4 164 18 164 11 b 125 -42 165 -19 149 -40 b 81 -4 103 -43 82 -26 b 79 25 79 6 79 15 "},"3":{"ha":724,"x_min":0,"x_max":0,"o":"m 135 754 b 163 799 142 769 151 785 b 200 836 174 813 186 825 b 246 865 214 847 229 857 b 297 883 263 874 279 879 b 351 890 315 888 333 890 l 353 890 l 354 890 l 356 890 b 406 886 372 890 389 889 b 454 871 422 883 439 878 b 499 846 469 864 485 856 b 536 813 513 836 525 825 b 565 771 547 800 557 786 b 585 724 574 756 581 740 b 589 706 586 718 588 713 b 592 688 590 700 592 694 b 592 668 592 682 592 674 b 590 640 592 660 592 651 b 585 611 589 631 588 621 b 575 585 582 601 579 593 b 554 544 569 571 563 557 b 525 508 546 532 536 519 b 489 478 514 497 501 488 b 435 449 472 465 454 456 b 378 435 417 442 397 438 b 324 431 360 432 342 431 b 282 472 300 431 282 449 b 324 514 282 496 300 514 b 365 518 338 514 351 515 b 406 528 379 521 393 524 b 442 549 418 533 431 540 b 465 568 450 554 458 561 b 485 593 472 576 479 585 b 499 618 490 601 494 610 b 504 635 501 624 503 629 b 508 651 506 640 507 646 b 510 669 510 658 510 664 b 510 682 510 675 510 676 b 510 692 510 686 510 689 b 506 701 508 696 507 699 b 493 731 503 711 499 721 b 474 757 488 740 481 749 b 449 779 467 765 458 772 b 421 794 440 785 431 790 b 388 804 410 799 399 801 b 354 808 376 807 365 808 l 353 808 l 351 808 l 350 808 b 313 804 338 808 325 807 b 278 792 300 801 289 797 b 249 774 267 786 257 781 b 225 750 240 767 232 758 b 208 722 218 742 213 732 b 200 693 204 713 201 703 b 151 660 196 671 174 656 b 118 708 129 664 114 686 b 133 757 121 725 126 742 m 603 367 b 640 231 628 325 640 278 b 606 94 640 190 632 142 b 504 -7 582 53 547 18 b 333 -49 460 -32 401 -49 b 138 10 275 -49 200 -35 b 76 68 114 26 93 46 b 85 126 63 86 67 113 b 143 118 103 140 129 136 b 185 78 154 103 168 89 b 332 35 224 50 278 35 b 460 67 383 35 426 47 b 531 136 490 83 515 108 b 554 232 549 169 554 203 b 529 326 554 265 546 299 b 489 367 518 346 499 361 b 476 425 469 379 464 406 b 535 438 489 444 515 450 b 601 368 556 424 582 401 "},"4":{"ha":639,"x_min":0,"x_max":0,"o":"m 28 229 b -8 251 11 229 -1 238 b -7 294 -15 265 -15 281 l 374 872 b 432 885 386 892 413 897 b 444 826 451 872 457 846 l 107 314 l 383 314 b 425 272 407 314 425 296 b 383 231 425 249 407 231 l 29 231 m 532 -1 b 490 -43 532 -25 514 -43 b 449 -1 467 -43 449 -25 l 449 603 b 490 644 449 626 467 644 b 532 603 514 644 532 626 l 532 -1 "},"5":{"ha":732,"x_min":0,"x_max":0,"o":"m 218 68 b 276 46 236 58 256 51 b 339 38 297 40 318 38 b 350 38 339 38 346 38 b 361 38 350 38 357 38 b 372 38 361 38 368 38 b 418 50 388 40 403 44 b 461 71 433 56 447 63 b 499 100 475 79 488 89 b 528 138 510 111 519 124 b 547 181 536 151 543 165 b 556 226 551 196 554 211 b 556 228 556 226 556 228 b 556 229 556 228 556 229 l 556 232 b 551 269 556 244 554 257 b 540 306 549 282 544 294 b 524 338 536 317 531 328 b 499 368 517 349 508 358 b 413 417 475 390 444 407 b 333 426 388 424 361 426 b 308 426 325 426 317 426 b 233 415 283 425 258 421 b 172 399 213 411 192 406 b 118 424 150 390 126 401 b 143 478 110 446 121 469 b 213 499 165 486 189 493 b 300 511 242 506 271 510 b 333 513 311 513 322 513 b 435 499 367 513 401 508 b 554 429 479 486 521 463 b 592 385 568 415 581 400 b 617 338 601 369 610 354 b 633 286 624 321 629 304 b 639 233 638 269 639 251 l 639 229 b 639 224 639 228 639 225 b 639 218 639 222 639 219 b 626 153 638 196 633 174 b 599 92 619 132 610 111 b 558 39 588 72 574 54 b 507 -1 543 24 525 10 b 449 -29 489 -12 469 -22 b 385 -44 428 -36 407 -42 b 371 -44 381 -44 375 -44 b 357 -44 367 -44 361 -44 b 343 -44 353 -44 347 -44 b 261 -33 315 -44 288 -40 b 183 -4 235 -26 208 -17 b 115 42 158 8 136 24 b 113 100 99 57 97 83 b 171 103 128 117 154 118 b 221 67 186 89 203 76 m 117 849 b 158 890 117 872 135 890 b 200 849 182 890 200 872 l 200 557 b 158 515 200 533 182 515 b 117 557 135 515 117 533 l 117 849 m 540 890 b 582 849 564 890 582 872 b 540 807 582 825 564 807 l 278 807 b 236 849 254 807 236 825 b 278 890 236 872 254 890 l 540 890 "},"6":{"ha":732,"x_min":0,"x_max":0,"o":"m 347 517 b 376 515 357 517 367 517 b 511 472 425 511 471 496 b 618 365 557 446 593 408 b 654 229 642 324 654 276 b 653 200 654 219 654 210 b 576 44 646 143 619 88 b 394 -40 529 -3 464 -33 b 361 -42 383 -42 372 -42 b 215 -6 310 -42 260 -29 b 94 115 163 22 121 65 b 57 282 79 144 57 199 b 69 392 57 319 61 357 b 211 663 94 496 147 579 b 501 900 286 760 386 842 b 557 881 522 910 547 901 b 538 825 567 860 558 835 b 275 610 432 772 342 697 b 149 369 214 529 169 457 b 138 281 142 342 138 311 b 164 153 138 217 153 175 b 249 67 182 118 211 88 b 354 40 279 50 317 40 b 378 42 363 40 371 40 b 508 103 428 47 476 71 b 560 211 538 133 556 172 b 561 232 561 218 561 225 b 536 326 561 264 553 297 b 458 404 518 357 492 385 b 358 435 429 421 394 432 b 338 435 351 435 344 435 b 293 431 322 435 307 433 b 244 464 271 426 249 442 b 278 513 240 486 256 508 b 336 518 297 517 317 518 "},"7":{"ha":671,"x_min":0,"x_max":0,"o":"m 460 722 b 515 742 469 743 494 751 b 535 686 536 732 544 707 l 186 -18 b 131 -37 176 -39 151 -47 b 111 18 110 -28 101 -3 l 460 722 m 121 808 b 79 850 97 808 79 826 b 121 892 79 874 97 892 l 569 892 b 611 850 593 892 611 874 b 569 808 611 826 593 808 l 121 808 "},"8":{"ha":707,"x_min":0,"x_max":0,"o":"m 489 607 b 499 660 496 624 499 642 b 488 715 499 679 494 699 b 421 792 475 747 450 775 b 349 811 399 804 374 811 b 324 808 340 811 332 810 b 221 739 279 800 242 772 b 199 658 208 718 199 690 b 206 615 199 643 201 629 b 290 522 219 572 254 538 b 363 507 304 517 333 510 b 468 482 390 504 440 496 b 607 321 533 450 583 390 b 622 231 617 292 622 261 b 597 114 622 190 614 150 b 444 -28 568 49 513 -3 b 353 -44 415 -39 383 -44 b 204 -1 308 -44 254 -33 b 78 206 133 44 86 122 b 76 235 76 215 76 225 b 117 381 76 293 94 343 b 157 433 128 400 142 418 b 217 433 174 450 200 450 b 217 374 233 417 233 390 b 188 338 206 363 196 350 b 160 236 172 311 160 276 b 161 215 160 229 160 222 b 250 69 167 157 201 101 b 353 39 285 47 322 39 b 417 50 375 39 397 43 b 522 149 463 67 501 104 b 539 229 533 174 539 201 b 528 294 539 251 535 274 b 429 408 511 343 475 386 b 351 425 415 415 375 422 b 256 446 313 429 274 439 b 125 592 193 472 144 526 b 115 658 118 614 115 636 b 150 781 115 707 131 749 b 307 888 182 832 239 875 b 349 892 321 890 335 892 b 461 863 388 892 426 882 b 565 744 508 836 546 794 b 582 658 576 717 582 688 b 565 574 582 629 576 600 b 538 524 558 556 549 539 b 479 515 524 506 497 501 b 471 574 461 529 457 556 b 488 606 478 583 483 594 "},"9":{"ha":694,"x_min":0,"x_max":0,"o":"m 340 343 b 265 353 315 343 290 346 b 124 440 219 365 165 392 b 63 607 83 488 63 547 b 64 629 63 614 63 621 b 149 804 69 694 100 757 b 303 885 189 844 243 874 b 349 889 318 888 333 889 b 476 856 393 889 438 878 b 576 758 511 836 549 804 b 617 636 599 719 611 678 b 621 574 619 615 621 594 b 603 438 621 528 614 482 b 475 182 579 344 533 258 b 243 -37 411 99 332 25 b 185 -26 224 -50 197 -46 b 196 32 172 -7 176 19 b 408 233 278 89 350 157 b 522 458 461 303 501 379 b 538 572 532 496 538 535 b 533 625 538 590 536 608 b 503 718 529 658 519 690 b 436 786 485 750 460 772 b 346 808 410 800 378 808 b 313 806 335 808 324 807 b 201 749 265 797 226 774 b 142 625 167 714 146 669 b 142 611 142 619 142 615 b 183 499 142 571 156 531 b 282 439 213 465 250 447 b 336 432 300 435 318 432 b 369 435 347 432 358 433 b 417 401 392 439 413 424 b 383 354 421 379 406 358 b 338 350 368 351 353 350 "}," ":{"ha":264,"x_min":0,"x_max":0,"o":""},"!":{"ha":181,"x_min":0,"x_max":0,"o":"m 49 894 b 90 936 49 918 67 936 b 132 894 114 936 132 918 l 132 214 b 90 172 132 190 114 172 b 49 214 67 172 49 190 l 49 894 m 90 144 b 183 51 142 144 183 103 b 90 -42 183 0 142 -42 b -3 51 39 -42 -3 0 b 90 144 -3 103 39 144 "},"\"":{"ha":190,"x_min":0,"x_max":0,"o":"m 189 683 b 147 642 189 660 171 642 b 106 683 124 642 106 660 l 106 901 b 147 943 106 925 124 943 b 189 901 171 943 189 925 l 189 683 m 85 683 b 43 642 85 660 67 642 b 1 683 19 642 1 660 l 1 901 b 43 943 1 925 19 943 b 85 901 67 943 85 925 l 85 683 "},"#":{"ha":568,"x_min":0,"x_max":0,"o":"m 196 349 l 176 275 l 342 275 l 361 349 m 351 -11 b 301 -42 346 -33 324 -47 b 271 8 279 -36 265 -14 l 319 189 l 154 189 l 100 -14 b 50 -44 94 -36 72 -50 b 19 6 28 -39 14 -17 l 68 186 l 53 186 b 11 228 29 186 11 204 b 53 269 11 251 29 269 l 90 269 l 110 343 l 53 343 b 11 385 29 343 11 361 b 53 426 11 408 29 426 l 132 426 l 183 622 b 233 653 189 644 211 658 b 264 603 256 647 269 625 l 218 429 l 383 429 l 435 625 b 485 656 440 647 463 661 b 515 606 507 650 521 628 l 469 432 l 489 432 b 531 390 513 432 531 414 b 489 349 531 367 513 349 l 447 349 l 428 275 l 489 275 b 531 233 513 275 531 257 b 489 192 531 210 513 192 l 406 192 l 351 -11 "},"$":{"ha":617,"x_min":0,"x_max":0,"o":"m 347 557 b 306 515 347 533 329 515 b 264 557 282 515 264 533 l 264 710 b 306 751 264 733 282 751 b 347 710 329 751 347 733 l 347 557 m 347 107 b 306 65 347 83 329 65 b 264 107 282 65 264 83 l 264 318 b 306 360 264 342 282 360 b 347 318 329 360 347 342 l 347 107 m 347 -142 b 306 -183 347 -165 329 -183 b 264 -142 282 -183 264 -165 l 264 -101 b 306 -60 264 -78 282 -60 b 347 -101 329 -60 347 -78 l 347 -142 m 110 100 b 272 44 160 71 215 51 b 319 42 288 43 304 42 b 417 56 353 42 386 46 b 517 118 457 68 493 90 b 551 206 539 143 551 175 b 551 215 551 210 551 211 b 525 283 550 239 540 263 b 463 336 510 304 488 322 b 279 396 410 367 342 378 b 124 471 226 411 171 432 b 64 542 100 490 79 514 b 38 632 49 569 39 600 b 38 643 38 635 38 640 b 65 747 38 679 47 715 b 150 829 82 776 110 807 b 263 861 185 849 224 858 b 281 861 267 861 274 861 l 285 861 b 263 897 271 868 263 882 l 263 942 b 304 983 263 965 281 983 b 346 942 328 983 346 965 l 346 897 b 319 858 346 879 335 864 b 374 846 338 856 356 851 b 485 793 414 835 451 817 l 485 818 b 526 860 485 842 503 860 b 568 818 550 860 568 842 l 568 697 b 540 660 568 679 558 665 b 494 672 522 654 506 658 b 353 768 464 711 415 750 b 285 779 331 775 307 779 b 269 779 281 779 275 779 b 193 758 242 778 215 771 b 139 707 168 744 150 725 b 122 643 128 688 122 665 b 122 636 122 643 122 639 b 139 581 124 617 129 597 b 179 532 149 563 163 546 b 304 474 221 497 278 481 b 504 407 365 456 442 443 b 592 331 538 388 568 363 b 633 218 613 303 631 264 b 633 203 633 214 633 207 b 579 61 633 150 613 100 b 442 -26 543 18 493 -10 b 318 -44 401 -39 360 -44 b 260 -40 299 -44 279 -43 b 68 25 192 -32 126 -8 b 11 63 49 36 29 49 b 3 121 -7 76 -11 103 b 61 129 17 139 43 143 b 110 97 76 118 93 107 "},"%":{"ha":876,"x_min":0,"x_max":0,"o":"m 739 919 b 797 928 753 938 779 942 b 806 869 815 914 819 888 l 122 -25 b 64 -33 108 -43 82 -47 b 56 25 46 -19 42 7 l 739 919 m 461 219 b 497 369 461 269 469 322 b 561 439 513 396 533 421 b 654 469 593 460 626 468 b 660 469 656 469 658 469 b 753 443 688 469 721 463 b 821 376 782 426 804 403 b 863 210 856 321 863 260 b 825 53 863 158 854 103 b 763 -12 810 28 789 4 b 671 -42 732 -32 699 -40 b 665 -42 669 -42 667 -42 b 576 -18 633 -42 603 -33 b 510 46 549 -1 526 21 b 464 206 476 96 465 153 b 464 221 464 206 464 221 m 544 201 b 576 86 546 158 556 118 b 615 50 586 71 600 58 b 663 38 629 42 646 38 l 665 38 b 715 53 681 38 699 42 b 751 92 729 63 742 76 b 778 206 771 124 778 164 b 749 329 778 253 769 294 b 710 369 739 346 725 360 b 660 383 693 379 675 383 l 657 383 b 607 368 642 383 624 379 b 569 328 592 358 579 344 b 544 219 551 297 544 260 b 544 207 544 219 544 207 m -10 697 b 26 847 -10 747 -1 800 b 90 917 42 874 63 899 b 183 947 122 938 156 946 b 189 947 185 947 188 947 b 282 921 217 947 250 940 b 350 854 311 904 333 881 b 392 688 385 799 392 738 b 354 531 392 636 383 581 b 292 465 339 506 318 482 b 200 436 261 446 228 438 b 194 436 199 436 196 436 b 106 460 163 436 132 444 b 39 524 78 476 56 499 b -7 683 6 574 -6 631 b -7 699 -7 683 -7 699 m 74 679 b 106 564 75 636 85 596 b 144 528 115 549 129 536 b 192 515 158 519 175 515 l 194 515 b 244 531 210 515 228 519 b 281 569 258 540 271 554 b 307 683 300 601 307 642 b 278 807 307 731 299 772 b 239 847 268 824 254 838 b 189 861 222 857 204 861 l 186 861 b 136 846 171 861 153 857 b 99 806 121 836 108 822 b 74 697 81 775 74 738 b 74 685 74 697 74 685 "},"&":{"ha":979,"x_min":0,"x_max":0,"o":"m 804 -17 b 725 -40 778 -35 749 -40 b 707 -40 721 -40 711 -40 b 614 15 669 -35 636 -15 l 194 540 b 150 639 172 569 157 603 b 146 676 147 651 146 664 b 157 746 146 700 150 724 b 224 843 168 778 189 814 b 333 890 254 869 293 886 b 353 890 339 890 344 890 b 460 857 390 890 428 879 b 531 746 494 832 522 793 b 533 718 532 738 533 729 b 514 638 533 690 526 663 b 447 560 500 611 479 583 b 390 525 429 546 410 535 b 335 544 369 515 344 524 b 354 600 325 565 333 590 b 396 625 369 607 383 615 b 439 674 417 640 431 657 b 450 717 446 688 450 703 b 450 731 450 722 450 726 b 414 788 444 761 424 781 b 356 804 394 800 372 804 b 346 804 351 804 349 804 b 282 776 319 801 297 789 b 242 715 265 763 250 742 b 235 674 238 701 235 688 b 238 649 235 665 236 657 b 265 588 242 626 251 606 l 685 63 b 725 39 690 56 704 42 b 733 39 725 39 731 39 b 767 49 747 39 758 43 b 792 83 774 53 786 64 b 842 113 797 106 819 118 b 871 63 864 107 876 85 b 813 -19 858 17 828 -10 m 138 408 b 69 274 100 372 75 324 b 68 249 68 265 68 257 b 96 146 68 213 78 176 b 192 58 117 108 151 76 b 288 38 221 44 254 38 b 321 40 299 38 310 39 b 440 96 358 46 401 63 b 450 106 443 99 446 101 b 508 103 467 121 493 119 b 506 44 524 86 522 60 b 492 31 500 39 496 35 b 329 -44 439 -14 381 -36 b 283 -49 314 -47 299 -49 b 154 -19 239 -49 194 -39 b 21 104 99 7 51 50 b -17 249 -4 149 -17 199 b -15 282 -17 260 -17 271 b 78 467 -7 353 28 418 b 106 490 86 475 96 483 b 164 483 124 504 150 501 b 157 425 178 465 175 439 b 136 407 150 419 143 414 m 564 326 b 611 396 575 350 589 375 b 689 433 638 417 657 429 b 701 433 692 433 697 433 b 707 433 703 433 706 433 b 785 403 735 433 763 424 b 818 328 806 383 818 357 b 776 286 818 304 800 286 b 735 328 753 286 735 304 b 728 343 735 333 733 339 b 708 350 722 349 714 350 l 707 350 b 703 350 707 350 704 350 b 672 335 690 349 681 342 b 643 290 657 321 647 300 b 626 254 638 279 632 267 b 574 231 618 233 594 222 b 550 283 553 239 542 263 b 568 325 556 297 561 311 "},"'":{"ha":224,"x_min":0,"x_max":0,"o":"m 143 933 b 192 894 164 926 181 913 b 210 839 201 881 208 861 b 210 833 210 838 210 835 b 190 761 210 811 204 786 b 150 708 178 740 164 724 b 82 653 139 696 113 669 b 25 671 61 642 36 650 b 43 728 14 692 22 717 b 83 760 58 736 75 751 b 19 849 46 772 19 807 b 113 942 19 900 61 942 l 114 942 b 144 938 125 942 135 940 l 144 938 "},"(":{"ha":336,"x_min":0,"x_max":0,"o":"m 63 433 b 186 917 63 601 106 769 b 243 933 197 938 222 944 b 260 876 264 922 271 897 b 147 432 186 740 147 586 l 147 432 b 263 -15 147 276 188 121 b 246 -72 274 -36 267 -61 b 189 -56 225 -83 200 -76 b 64 431 107 93 64 261 "},")":{"ha":336,"x_min":0,"x_max":0,"o":"m 171 428 b 58 872 171 582 132 736 b 75 929 47 893 54 918 b 132 913 96 940 121 933 b 256 429 213 765 256 597 l 256 429 b 131 -57 256 260 213 92 b 74 -74 119 -78 94 -85 b 57 -17 53 -62 46 -37 b 172 431 132 119 172 275 "},"*":{"ha":371,"x_min":0,"x_max":0,"o":"m 228 617 b 186 575 228 593 210 575 b 144 617 163 575 144 593 l 144 683 l 86 650 b 31 665 67 639 42 646 b 46 721 19 685 26 710 l 104 754 l 46 788 b 31 843 26 799 19 824 b 86 858 42 863 67 869 l 144 825 l 144 892 b 186 933 144 915 163 933 b 228 892 210 933 228 915 l 228 825 l 286 858 b 342 843 306 869 331 863 b 326 788 353 824 346 799 l 268 754 l 326 721 b 342 665 346 710 353 685 b 286 650 331 646 306 639 l 228 683 l 228 617 "},"+":{"ha":568,"x_min":0,"x_max":0,"o":"m 239 572 b 281 614 239 596 257 614 b 322 572 304 614 322 596 l 322 432 l 465 432 b 507 390 489 432 507 414 b 465 349 507 367 489 349 l 322 349 l 322 200 b 281 158 322 176 304 158 b 239 200 257 158 239 176 l 239 349 l 93 349 b 51 390 69 349 51 367 b 93 432 51 414 69 432 l 239 432 l 239 572 "},",":{"ha":289,"x_min":0,"x_max":0,"o":"m 165 136 b 214 97 186 129 203 115 b 232 42 224 83 231 64 b 232 36 232 40 232 38 b 213 -36 232 14 226 -11 b 172 -89 200 -57 186 -74 b 122 -140 156 -107 139 -124 b 64 -139 106 -156 79 -156 b 65 -81 49 -122 49 -96 b 110 -35 81 -65 96 -50 b 44 53 72 -24 44 11 b 135 143 44 103 85 143 l 136 143 l 136 143 b 144 143 139 143 142 143 b 168 139 151 143 160 142 "},"-":{"ha":282,"x_min":0,"x_max":0,"o":"m 257 432 b 299 390 281 432 299 414 b 257 349 299 367 281 349 l 21 349 b -21 390 -3 349 -21 367 b 21 432 -21 414 -3 432 l 258 432 "},".":{"ha":236,"x_min":0,"x_max":0,"o":"m 117 144 b 210 51 168 144 210 103 b 117 -42 210 0 168 -42 b 24 51 65 -42 24 0 b 117 144 24 103 65 144 "},"/":{"ha":444,"x_min":0,"x_max":0,"o":"m 129 -25 b 76 -53 122 -47 99 -60 b 49 0 54 -46 42 -22 l 329 894 b 382 922 336 917 360 929 b 410 869 404 915 417 892 l 129 -25 "},":":{"ha":272,"x_min":0,"x_max":0,"o":"m 118 667 b 211 574 169 667 211 625 b 118 481 211 522 169 481 b 25 574 67 481 25 522 b 118 667 25 625 67 667 m 118 144 b 211 51 169 144 211 103 b 118 -42 211 0 169 -42 b 25 51 67 -42 25 0 b 118 144 25 103 67 144 "},";":{"ha":269,"x_min":0,"x_max":0,"o":"m 128 667 b 221 574 179 667 221 625 b 128 481 221 522 179 481 b 35 574 76 481 35 522 b 128 667 35 625 76 667 m 158 136 b 207 97 179 129 196 115 b 225 42 217 83 224 64 b 225 36 225 40 225 38 b 206 -36 225 14 219 -11 b 165 -89 193 -57 179 -74 b 115 -140 149 -107 132 -124 b 57 -139 99 -156 72 -156 b 58 -81 42 -122 42 -96 b 99 -39 72 -67 86 -53 b 35 50 61 -26 35 8 b 128 143 35 101 76 143 l 129 143 b 160 139 140 143 150 142 l 160 139 "},"<":{"ha":181,"x_min":0,"x_max":0,"o":"m 117 304 b 200 260 144 290 172 275 b 215 204 219 249 226 224 b 160 189 204 185 179 178 b 76 232 132 204 104 218 b 1 267 51 244 26 256 b -22 304 -14 274 -22 288 b 3 342 -22 321 -12 335 b 78 376 28 353 53 364 b 161 421 106 390 133 406 b 217 406 181 432 206 425 b 201 350 228 386 221 361 b 117 306 174 335 146 319 "},"=":{"ha":568,"x_min":0,"x_max":0,"o":"m 494 354 b 536 313 518 354 536 336 b 494 271 536 289 518 271 l 58 271 b 17 313 35 271 17 289 b 58 354 17 336 35 354 l 494 354 m 494 511 b 536 469 518 511 536 493 b 494 428 536 446 518 428 l 58 428 b 17 469 35 428 17 446 b 58 511 17 493 35 511 l 494 511 "},">":{"ha":181,"x_min":0,"x_max":0,"o":"m 107 381 b 182 346 132 368 157 357 b 207 308 197 339 207 325 b 183 271 207 292 199 278 b 108 236 158 260 133 249 b 25 193 81 222 53 208 b -31 208 6 182 -19 189 b -15 264 -42 228 -35 253 b 68 308 13 279 40 294 b -17 353 39 322 11 338 b -32 408 -36 364 -43 389 b 24 424 -21 428 4 435 b 107 379 51 408 79 393 "},"?":{"ha":461,"x_min":0,"x_max":0,"o":"m 99 288 b 139 439 100 340 115 393 b 257 603 172 504 221 553 b 297 678 275 628 289 653 b 306 729 303 694 306 713 b 303 754 306 738 304 746 b 253 831 294 796 267 821 b 175 854 228 849 199 854 b 161 854 171 854 167 854 b 90 829 136 851 111 843 b 32 842 71 817 44 822 b 44 900 19 861 25 888 b 153 936 76 921 114 933 b 172 936 161 936 167 936 b 299 897 217 936 261 924 b 382 769 342 867 372 821 b 386 728 385 756 386 742 b 374 650 386 701 382 675 b 321 554 361 614 342 582 b 210 401 292 513 236 451 b 178 286 190 365 179 326 l 178 214 b 136 172 178 190 160 172 b 94 214 113 172 94 190 l 94 289 m 140 143 b 233 50 192 143 233 101 b 140 -43 233 -1 192 -43 b 47 50 89 -43 47 -1 b 140 143 47 101 89 143 "},"@":{"ha":660,"x_min":0,"x_max":0,"o":"m 168 506 b 224 546 183 522 203 536 b 318 567 254 560 286 565 b 324 567 319 567 322 567 b 368 561 338 567 353 565 b 421 538 386 557 404 550 b 469 472 446 519 461 494 b 479 415 476 454 479 435 l 479 413 l 479 404 l 479 386 l 479 375 l 479 132 b 438 90 479 108 461 90 b 396 132 414 90 396 108 l 396 375 l 396 386 l 396 404 l 396 414 l 396 417 b 392 444 396 426 394 436 b 372 472 388 457 381 467 b 351 481 367 476 360 479 b 325 483 343 482 335 483 b 319 483 324 483 321 483 b 258 471 297 483 276 479 b 229 450 247 465 238 458 b 221 438 226 446 224 442 b 163 425 208 418 182 413 b 150 483 143 438 138 464 b 168 506 156 492 161 499 m 543 181 b 572 311 561 218 569 264 b 572 331 572 318 572 325 b 525 490 572 379 563 440 b 449 554 506 517 479 539 b 349 582 418 569 383 579 b 324 582 340 582 332 582 b 217 561 286 582 250 575 b 114 482 176 544 140 517 b 68 376 92 451 76 415 b 60 303 63 353 60 328 b 63 257 60 288 61 272 b 94 142 67 217 78 178 b 164 50 111 107 135 75 b 276 -6 196 24 235 4 b 346 -14 299 -11 322 -14 b 406 -10 365 -14 386 -12 b 610 74 478 1 549 31 b 668 63 629 86 656 82 b 657 4 681 43 676 17 b 418 -93 586 -44 504 -79 b 344 -99 394 -97 369 -99 b 257 -89 315 -99 286 -96 b 108 -15 203 -76 151 -51 b 18 104 69 18 39 60 b -21 244 -3 149 -15 196 b -25 299 -24 263 -25 281 b -15 390 -25 329 -22 360 b 46 528 -4 439 15 486 b 182 633 81 575 128 611 b 321 660 226 651 274 660 b 350 658 331 660 340 660 b 481 621 394 654 439 642 b 586 532 522 600 558 569 b 650 324 632 471 650 396 b 650 300 650 317 650 308 b 613 136 647 246 639 189 b 568 76 600 110 585 90 b 510 83 550 63 524 65 b 517 142 496 101 499 128 b 539 174 519 144 529 153 m 263 272 b 203 189 215 257 203 222 b 203 185 203 189 203 186 b 215 153 204 172 207 163 b 236 140 221 146 229 142 b 250 139 240 139 244 139 b 274 143 257 139 264 140 l 322 160 b 375 133 344 167 368 156 b 349 81 382 111 371 88 l 299 64 b 251 57 283 60 267 57 b 217 61 239 57 228 58 b 153 103 182 71 163 92 b 122 182 132 128 126 150 b 122 193 122 185 122 190 b 240 356 122 278 172 333 l 325 383 b 378 356 347 390 371 378 b 350 303 385 333 372 310 l 265 275 "},"A":{"ha":908,"x_min":0,"x_max":0,"o":"m 557 356 b 599 314 581 356 599 338 b 557 272 599 290 581 272 l 335 272 b 293 314 311 272 293 290 b 335 356 293 338 311 356 l 557 356 m 336 736 b 392 757 346 757 371 767 b 413 701 413 747 422 722 l 104 -18 b 49 -39 94 -39 69 -49 b 28 17 28 -29 18 -4 l 336 736 m 867 17 b 846 -39 876 -4 867 -29 b 790 -18 825 -49 800 -39 l 410 871 b 431 926 400 892 410 917 b 486 906 451 936 476 926 l 867 17 "},"B":{"ha":940,"x_min":0,"x_max":0,"o":"m 853 257 b 522 -42 853 68 725 -42 l 299 -42 b 257 0 275 -42 257 -24 b 299 42 257 24 275 42 l 522 42 b 769 257 640 42 769 85 l 769 258 b 711 414 769 333 744 385 b 707 474 693 429 692 456 b 767 478 722 492 749 493 b 854 258 822 429 854 351 m 118 888 b 160 929 118 911 136 929 b 201 888 183 929 201 911 l 201 -1 b 160 -43 201 -25 183 -43 b 118 -1 136 -43 118 -25 l 118 888 m 501 929 b 772 685 708 929 772 806 b 501 458 772 554 676 458 l 301 458 b 260 500 278 458 260 476 b 301 542 260 524 278 542 l 501 542 b 689 685 628 542 689 601 b 501 846 689 778 644 846 l 289 846 b 247 888 265 846 247 864 b 289 929 247 911 265 929 l 501 929 "},"C":{"ha":894,"x_min":0,"x_max":0,"o":"m 496 -39 b 490 -39 494 -39 492 -39 b 265 29 411 -37 332 -14 b 106 204 197 72 142 133 b 50 422 71 272 53 347 b 50 440 50 428 50 433 b 89 644 50 510 63 579 b 265 864 124 732 183 811 b 492 931 332 907 411 931 l 492 931 b 718 864 572 931 651 907 b 731 806 738 851 743 825 b 672 793 718 786 692 781 b 492 846 626 822 564 846 l 492 846 b 311 793 419 846 357 822 b 167 610 238 744 192 672 b 133 439 144 556 133 497 b 133 425 133 433 133 429 b 181 242 136 361 151 297 b 311 97 211 183 257 132 b 493 42 365 63 429 43 l 499 42 b 749 146 583 42 678 75 b 808 146 765 163 792 163 b 808 86 825 129 825 103 b 500 -42 721 -1 604 -42 "},"D":{"ha":851,"x_min":0,"x_max":0,"o":"m 332 933 b 396 928 353 932 375 931 b 546 879 447 919 499 904 b 669 776 593 854 636 819 b 747 617 707 729 732 674 b 768 444 763 560 768 501 l 768 442 b 747 265 768 383 763 324 b 664 99 731 206 704 147 b 485 -22 611 35 544 -3 b 382 -42 451 -33 417 -40 b 360 -42 375 -42 368 -42 b 339 -42 353 -42 347 -42 l 276 -42 b 235 0 253 -42 235 -24 b 276 42 235 24 253 42 l 342 42 b 360 42 349 42 354 42 b 378 42 367 42 372 42 b 460 57 406 43 433 49 b 600 151 506 72 558 101 b 668 286 632 189 654 236 b 688 439 682 335 688 386 l 688 442 b 669 593 688 493 682 544 b 607 722 657 640 636 685 b 510 803 581 756 547 783 b 386 842 472 822 431 835 b 333 847 368 844 351 846 l 286 847 b 244 889 263 847 244 865 b 286 931 244 913 263 931 l 335 931 m 117 892 b 158 933 117 915 135 933 b 200 892 182 933 200 915 l 200 3 b 158 -39 200 -21 182 -39 b 117 3 135 -39 117 -21 l 117 892 "},"E":{"ha":849,"x_min":0,"x_max":0,"o":"m 279 436 b 238 478 256 436 238 454 b 279 519 238 501 256 519 l 638 519 b 679 478 661 519 679 501 b 638 436 679 454 661 436 l 279 436 m 276 -42 b 235 0 253 -42 235 -24 b 276 42 235 24 253 42 l 721 42 b 763 0 744 42 763 24 b 721 -42 763 -24 744 -42 l 276 -42 m 118 889 b 160 931 118 913 136 931 b 201 889 183 931 201 913 l 201 0 b 160 -42 201 -24 183 -42 b 118 0 136 -42 118 -24 l 118 889 m 719 931 b 761 889 743 931 761 913 b 719 847 761 865 743 847 l 279 847 b 238 889 256 847 238 865 b 279 931 238 913 256 931 l 719 931 "},"F":{"ha":793,"x_min":0,"x_max":0,"o":"m 279 436 b 238 478 256 436 238 454 b 279 519 238 501 256 519 l 615 519 b 657 478 639 519 657 501 b 615 436 657 454 639 436 l 279 436 m 118 889 b 160 931 118 913 136 931 b 201 889 183 931 201 913 l 201 0 b 160 -42 201 -24 183 -42 b 118 0 136 -42 118 -24 l 118 889 m 697 931 b 739 889 721 931 739 913 b 697 847 739 865 721 847 l 279 847 b 238 889 256 847 238 865 b 279 931 238 913 256 931 l 697 931 "},"G":{"ha":933,"x_min":0,"x_max":0,"o":"m 621 826 b 560 844 601 835 581 840 b 497 851 539 849 518 851 b 435 844 476 851 456 849 b 374 826 414 840 393 835 b 317 797 354 818 335 808 b 257 749 294 783 275 767 b 208 686 239 729 222 708 b 172 615 194 664 182 640 b 154 560 165 597 160 579 b 142 501 149 540 144 521 b 138 443 139 482 138 463 b 138 435 138 443 138 438 b 138 426 138 435 138 429 b 146 364 139 406 142 385 b 163 303 150 343 156 322 b 188 246 169 283 178 264 b 222 190 197 226 208 208 b 268 140 236 172 251 156 b 318 100 283 125 300 111 b 375 71 336 89 356 79 b 436 53 394 63 415 57 b 499 46 457 49 478 46 b 581 57 526 46 554 50 b 656 89 607 64 632 75 b 764 235 710 121 751 175 b 769 290 767 246 769 268 l 769 432 b 811 474 769 456 788 474 b 853 432 835 474 853 456 l 853 292 b 847 218 853 285 853 247 b 699 17 828 129 768 58 b 601 -25 668 -1 635 -15 b 499 -39 568 -35 533 -39 b 419 -31 472 -39 446 -36 b 343 -7 393 -25 368 -17 b 272 29 318 3 294 15 b 210 78 250 43 229 60 b 156 136 190 96 172 115 b 113 203 139 157 125 179 b 83 272 101 225 92 249 b 64 346 75 296 68 321 b 56 421 60 371 57 396 b 56 429 56 424 56 426 b 56 438 56 432 56 435 b 60 508 56 461 57 485 b 72 576 63 532 67 554 b 93 643 78 599 85 621 b 136 726 106 672 119 700 b 194 801 153 753 172 778 b 268 864 217 825 242 846 b 339 900 290 878 314 890 b 415 922 364 910 389 917 b 494 931 442 928 468 931 b 574 922 521 931 547 928 b 650 900 600 917 625 910 b 721 864 675 890 699 878 b 733 806 740 851 746 825 b 675 793 721 786 694 781 b 618 822 657 804 638 814 m 417 390 b 375 433 393 390 375 410 b 418 475 375 457 394 475 l 681 474 b 722 431 704 474 722 454 b 679 389 722 407 703 389 l 417 390 "},"H":{"ha":924,"x_min":0,"x_max":0,"o":"m 722 889 b 764 931 722 913 740 931 b 806 889 788 931 806 913 l 806 0 b 764 -42 806 -24 788 -42 b 722 0 740 -42 722 -24 l 722 889 m 278 436 b 236 478 254 436 236 454 b 278 519 236 501 254 519 l 647 519 b 689 478 671 519 689 501 b 647 436 689 454 671 436 l 278 436 m 117 889 b 158 931 117 913 135 931 b 200 889 182 931 200 913 l 200 0 b 158 -42 200 -24 182 -42 b 117 0 135 -42 117 -24 l 117 889 "},"I":{"ha":319,"x_min":0,"x_max":0,"o":"m 118 889 b 160 931 118 913 136 931 b 201 889 183 931 201 913 l 201 0 b 160 -42 201 -24 183 -42 b 118 0 136 -42 118 -24 l 118 889 "},"J":{"ha":785,"x_min":0,"x_max":0,"o":"m 675 282 b 633 240 675 258 657 240 b 592 282 610 240 592 258 l 592 889 b 633 931 592 913 610 931 b 675 889 657 931 675 913 l 675 282 m 590 57 b 365 -40 532 -4 450 -40 l 364 -40 b 156 40 288 -40 213 -11 b 56 240 99 92 63 164 b 93 285 54 263 71 283 b 138 247 115 286 136 269 b 211 99 142 197 165 140 b 365 39 257 57 315 39 l 367 39 b 531 110 428 39 489 65 b 560 150 542 122 551 136 b 615 165 571 169 596 176 b 631 110 635 154 642 129 b 590 56 619 90 606 72 "},"K":{"ha":851,"x_min":0,"x_max":0,"o":"m 325 368 b 325 428 308 385 308 411 b 385 428 342 444 368 444 l 782 31 b 782 -29 799 14 799 -12 b 722 -29 765 -46 739 -46 l 325 368 m 294 457 b 235 457 278 440 251 440 b 235 517 218 474 218 500 l 639 921 b 699 921 656 938 682 938 b 699 861 715 904 715 878 l 294 457 m 201 0 b 160 -42 201 -24 183 -42 b 118 0 136 -42 118 -24 l 118 889 b 160 931 118 913 136 931 b 201 889 183 931 201 913 l 201 0 "},"L":{"ha":775,"x_min":0,"x_max":0,"o":"m 299 -42 b 257 0 275 -42 257 -24 b 299 42 257 24 275 42 l 717 42 b 758 0 740 42 758 24 b 717 -42 758 -24 740 -42 l 299 -42 m 118 889 b 160 931 118 913 136 931 b 201 889 183 931 201 913 l 201 0 b 160 -42 201 -24 183 -42 b 118 0 136 -42 118 -24 l 118 889 "},"M":{"ha":1242,"x_min":0,"x_max":0,"o":"m 1046 908 b 1103 926 1057 929 1082 938 b 1121 869 1124 915 1132 890 l 750 156 b 693 138 739 135 714 126 b 675 194 672 149 664 174 l 1046 908 m 1125 0 b 1083 -42 1125 -24 1107 -42 b 1042 0 1060 -42 1042 -24 l 1042 619 b 1083 661 1042 643 1060 661 b 1125 619 1107 661 1125 643 l 1125 0 m 242 640 b 261 696 232 661 240 686 b 317 676 282 706 307 697 l 650 17 b 631 -39 660 -4 651 -29 b 575 -19 610 -49 585 -40 l 242 640 m 201 0 b 160 -42 201 -24 183 -42 b 118 0 136 -42 118 -24 l 118 889 b 160 931 118 913 136 931 b 201 889 183 931 201 913 l 201 0 "},"N":{"ha":921,"x_min":0,"x_max":0,"o":"m 804 278 b 763 236 804 254 786 236 b 721 278 739 236 721 254 l 721 889 b 763 931 721 913 739 931 b 804 889 786 931 804 913 l 804 278 m 126 865 b 139 924 114 885 119 911 b 197 911 158 936 185 931 l 799 22 b 786 -36 811 3 806 -24 b 728 -24 767 -49 740 -43 l 126 865 m 203 0 b 161 -42 203 -24 185 -42 b 119 0 138 -42 119 -24 l 119 611 b 161 653 119 635 138 653 b 203 611 185 653 203 635 l 203 0 "},"O":{"ha":1024,"x_min":0,"x_max":0,"o":"m 501 931 b 951 444 753 931 951 710 b 501 -42 951 179 753 -42 b 51 444 250 -42 51 179 b 501 931 51 710 250 931 m 133 444 b 500 42 133 219 300 42 b 867 444 700 42 867 219 b 500 847 867 669 700 847 b 133 444 300 847 133 669 "},"P":{"ha":842,"x_min":0,"x_max":0,"o":"m 119 889 b 161 931 119 913 138 931 b 203 889 185 931 203 913 l 203 0 b 161 -42 203 -24 185 -42 b 119 0 138 -42 119 -24 l 119 889 m 503 931 b 778 644 693 931 778 794 b 519 374 778 471 664 374 l 306 374 b 264 415 282 374 264 392 b 306 457 264 439 282 457 l 519 457 b 694 644 625 457 694 525 b 503 847 694 735 656 847 l 301 847 b 260 889 278 847 260 865 b 301 931 260 913 278 931 l 503 931 "},"Q":{"ha":1039,"x_min":0,"x_max":0,"o":"m 904 29 b 904 -31 921 13 921 -14 b 844 -31 888 -47 861 -47 l 496 318 b 496 378 479 335 479 361 b 556 378 513 394 539 394 l 904 29 m 501 -44 b 51 442 250 -44 51 176 b 501 928 51 707 250 928 b 951 442 753 928 951 707 b 892 201 951 354 929 272 b 835 183 881 181 856 172 b 817 240 814 194 806 219 b 867 443 849 300 867 369 b 500 846 867 668 700 846 b 133 443 300 846 133 668 b 500 40 133 218 300 40 b 639 71 549 40 596 51 b 694 50 660 81 685 71 b 674 -6 704 29 694 4 b 501 -42 621 -29 563 -42 "},"R":{"ha":903,"x_min":0,"x_max":0,"o":"m 386 319 b 385 378 369 335 369 361 b 443 379 400 394 426 394 l 813 29 b 814 -29 829 14 829 -12 b 756 -31 799 -46 772 -46 l 386 319 m 119 889 b 161 931 119 913 138 931 b 203 889 185 931 203 913 l 203 0 b 161 -42 203 -24 185 -42 b 119 0 138 -42 119 -24 l 119 889 m 519 929 b 779 676 675 929 779 844 b 522 429 779 510 674 429 l 308 429 b 267 471 285 429 267 447 b 308 513 267 494 285 513 l 522 513 b 696 678 661 513 696 592 b 519 847 696 775 653 847 l 300 847 b 258 889 276 847 258 865 b 300 931 258 913 276 931 l 519 931 "},"S":{"ha":810,"x_min":0,"x_max":0,"o":"m 547 804 b 410 846 504 836 451 846 l 407 846 b 332 833 381 846 356 842 b 269 796 308 825 286 813 b 232 713 239 765 233 729 b 188 672 231 689 211 671 b 147 717 164 674 146 693 b 207 854 149 744 158 804 b 301 914 233 882 267 901 b 403 929 335 925 369 929 l 406 929 b 592 871 471 929 538 911 b 693 685 647 829 689 761 b 653 640 694 661 676 642 b 608 681 629 639 610 657 b 540 804 606 732 576 778 m 286 583 b 419 504 328 540 383 517 b 618 419 479 482 557 464 b 658 386 632 410 646 399 b 656 328 674 369 672 343 b 597 331 639 313 613 314 b 569 354 589 339 579 347 b 390 426 521 389 456 403 b 225 526 332 447 272 478 b 188 576 211 542 199 558 b 200 633 175 596 181 621 b 257 621 219 646 244 640 b 286 585 265 608 275 596 m 719 219 b 642 42 719 149 688 85 b 531 -22 610 11 571 -10 b 408 -40 490 -35 449 -40 l 407 -40 b 268 -18 360 -40 313 -33 b 144 58 222 -3 179 22 b 68 243 96 107 68 174 b 68 251 68 246 68 249 b 113 292 69 275 89 293 b 154 247 136 290 154 271 b 154 242 154 247 154 243 b 207 115 154 196 174 149 b 299 58 232 90 264 71 b 410 40 333 46 371 40 l 411 40 b 507 54 444 40 476 44 b 588 100 538 64 565 79 b 639 218 619 131 639 175 l 639 221 b 681 264 639 244 657 264 b 724 222 704 264 724 246 l 724 218 "},"T":{"ha":796,"x_min":0,"x_max":0,"o":"m 354 764 b 396 806 354 788 372 806 b 438 764 419 806 438 788 l 438 0 b 396 -42 438 -24 419 -42 b 354 0 372 -42 354 -24 l 354 764 m 722 931 b 764 889 746 931 764 913 b 722 847 764 865 746 847 l 71 847 b 29 889 47 847 29 865 b 71 931 29 913 47 931 l 722 931 "},"U":{"ha":958,"x_min":0,"x_max":0,"o":"m 186 236 b 144 194 186 213 168 194 b 103 236 121 194 103 213 l 103 889 b 144 931 103 913 121 931 b 186 889 168 931 186 913 l 186 236 m 294 76 b 474 42 358 46 429 42 b 656 78 565 42 624 63 b 724 126 682 90 706 107 b 782 129 739 143 765 144 b 785 71 799 114 800 88 b 692 3 757 42 725 19 b 474 -42 653 -17 582 -42 b 257 3 388 -42 315 -25 b 164 71 224 19 192 42 b 167 129 149 88 150 114 b 225 126 183 144 210 143 b 293 78 243 107 267 90 m 765 888 b 807 929 765 911 783 929 b 849 888 831 929 849 911 l 849 235 b 807 193 849 211 831 193 b 765 235 783 193 765 211 l 765 888 "},"V":{"ha":861,"x_min":0,"x_max":0,"o":"m 464 14 b 439 -40 472 -8 461 -32 b 385 -15 417 -49 393 -37 l 56 874 b 81 928 47 896 58 919 b 135 903 103 936 126 925 l 464 14 m 717 903 b 771 928 725 925 749 936 b 796 874 793 919 804 896 l 563 249 b 508 224 554 226 531 215 b 483 278 486 232 475 256 l 717 903 "},"W":{"ha":1265,"x_min":0,"x_max":0,"o":"m 964 244 b 910 219 956 222 932 211 b 885 274 888 228 876 251 l 1119 904 b 1174 929 1128 926 1151 938 b 1199 875 1196 921 1207 897 l 964 244 m 653 339 b 676 392 644 360 656 383 b 729 368 697 400 721 389 l 867 15 b 843 -37 875 -6 864 -29 b 790 -14 822 -46 799 -35 l 653 339 m 547 211 b 493 186 539 189 515 178 b 468 240 471 194 460 218 l 715 904 b 769 929 724 926 747 938 b 794 875 792 921 803 897 l 547 211 m 56 875 b 81 929 47 897 58 921 b 135 904 103 938 126 926 l 464 15 b 439 -39 472 -7 461 -31 b 385 -14 417 -47 393 -36 l 56 875 "},"X":{"ha":1083,"x_min":0,"x_max":0,"o":"m 1008 28 b 1006 -31 1024 11 1022 -15 b 947 -28 989 -46 963 -44 l 135 861 b 138 919 119 878 121 904 b 196 917 154 935 181 933 l 1008 28 m 693 574 b 635 571 678 557 651 556 b 632 629 618 586 617 613 l 896 915 b 954 918 911 932 938 933 b 957 860 971 903 972 876 l 693 574 m 139 -29 b 81 -32 124 -46 97 -47 b 78 26 64 -17 63 10 l 410 385 b 468 388 425 401 451 403 b 471 329 485 372 486 346 l 139 -29 "},"Y":{"ha":915,"x_min":0,"x_max":0,"o":"m 496 0 b 454 -42 496 -24 478 -42 b 413 0 431 -42 413 -24 l 413 333 b 454 375 413 357 431 375 b 496 333 478 375 496 357 l 496 0 m 485 503 b 482 444 500 486 499 460 b 424 447 465 429 439 431 l 44 861 b 47 919 29 878 31 904 b 106 917 64 935 90 933 l 485 503 m 804 917 b 863 919 819 933 846 935 b 865 861 879 904 881 878 l 625 600 b 567 597 610 583 583 582 b 564 656 550 613 549 639 l 804 917 "},"Z":{"ha":976,"x_min":0,"x_max":0,"o":"m 829 932 b 871 890 853 932 871 914 b 829 849 871 867 853 849 l 143 849 b 101 890 119 849 101 867 b 143 932 101 914 119 932 l 829 932 m 151 -26 b 93 -33 138 -44 111 -47 b 86 25 75 -19 72 7 l 700 783 b 758 790 714 801 740 804 b 765 732 776 776 779 750 l 151 -26 m 879 42 b 921 0 903 42 921 24 b 879 -42 921 -24 903 -42 l 325 -42 b 283 0 301 -42 283 -24 b 325 42 283 24 301 42 l 879 42 "},"[":{"ha":236,"x_min":0,"x_max":0,"o":"m 132 -69 l 185 -69 b 226 -111 208 -69 226 -87 b 185 -153 226 -135 208 -153 l 90 -153 b 49 -111 67 -153 49 -135 l 47 894 b 89 936 47 918 65 936 l 185 936 b 226 894 208 936 226 918 b 185 853 226 871 208 853 l 131 853 "},"\\":{"ha":336,"x_min":0,"x_max":0,"o":"m 349 13 b 321 -40 356 -10 343 -33 b 268 -12 299 -47 275 -35 l -12 882 b 15 935 -19 904 -7 928 b 68 907 38 942 61 929 l 349 13 "},"]":{"ha":236,"x_min":0,"x_max":0,"o":"m 89 853 l 36 853 b -6 894 13 853 -6 871 b 36 936 -6 918 13 936 l 131 936 b 172 894 154 936 172 918 l 174 -111 b 132 -153 174 -135 156 -153 l 36 -153 b -6 -111 13 -153 -6 -135 b 36 -69 -6 -87 13 -69 l 90 -69 "},"^":{"ha":226,"x_min":0,"x_max":0,"o":"m 78 860 b 111 876 86 871 97 876 b 144 860 125 876 136 871 l 244 728 b 236 669 258 710 254 683 b 178 678 218 656 192 660 l 111 767 l 43 678 b -15 671 29 660 3 657 b -22 729 -33 685 -36 711 l 79 861 "},"_":{"ha":532,"x_min":0,"x_max":0,"o":"m 532 31 b 574 -11 556 31 574 13 b 532 -53 574 -35 556 -53 l 0 -53 b -42 -11 -24 -53 -42 -35 b 0 31 -42 13 -24 31 l 532 31 "},"`":{"ha":142,"x_min":0,"x_max":0,"o":"m 147 738 b 153 678 165 722 168 696 b 93 672 138 660 111 657 b -22 818 53 707 8 756 b -3 874 -32 839 -24 864 b 53 854 18 883 43 875 b 149 736 78 806 114 765 "},"a":{"ha":908,"x_min":0,"x_max":0,"o":"m 557 356 b 599 314 581 356 599 338 b 557 272 599 290 581 272 l 335 272 b 293 314 311 272 293 290 b 335 356 293 338 311 356 l 557 356 m 336 736 b 392 757 346 757 371 767 b 413 701 413 747 422 722 l 104 -18 b 49 -39 94 -39 69 -49 b 28 17 28 -29 18 -4 l 336 736 m 867 17 b 846 -39 876 -4 867 -29 b 790 -18 825 -49 800 -39 l 410 871 b 431 926 400 892 410 917 b 486 906 451 936 476 926 l 867 17 "},"b":{"ha":940,"x_min":0,"x_max":0,"o":"m 853 257 b 522 -42 853 68 725 -42 l 299 -42 b 257 0 275 -42 257 -24 b 299 42 257 24 275 42 l 522 42 b 769 257 640 42 769 85 l 769 258 b 711 414 769 333 744 385 b 707 474 693 429 692 456 b 767 478 722 492 749 493 b 854 258 822 429 854 351 m 118 888 b 160 929 118 911 136 929 b 201 888 183 929 201 911 l 201 -1 b 160 -43 201 -25 183 -43 b 118 -1 136 -43 118 -25 l 118 888 m 501 929 b 772 685 708 929 772 806 b 501 458 772 554 676 458 l 301 458 b 260 500 278 458 260 476 b 301 542 260 524 278 542 l 501 542 b 689 685 628 542 689 601 b 501 846 689 778 644 846 l 289 846 b 247 888 265 846 247 864 b 289 929 247 911 265 929 l 501 929 "},"c":{"ha":894,"x_min":0,"x_max":0,"o":"m 496 -39 b 490 -39 494 -39 492 -39 b 265 29 411 -37 332 -14 b 106 204 197 72 142 133 b 50 422 71 272 53 347 b 50 440 50 428 50 433 b 89 644 50 510 63 579 b 265 864 124 732 183 811 b 492 931 332 907 411 931 l 492 931 b 718 864 572 931 651 907 b 731 806 738 851 743 825 b 672 793 718 786 692 781 b 492 846 626 822 564 846 l 492 846 b 311 793 419 846 357 822 b 167 610 238 744 192 672 b 133 439 144 556 133 497 b 133 425 133 433 133 429 b 181 242 136 361 151 297 b 311 97 211 183 257 132 b 493 42 365 63 429 43 l 499 42 b 749 146 583 42 678 75 b 808 146 765 163 792 163 b 808 86 825 129 825 103 b 500 -42 721 -1 604 -42 "},"d":{"ha":851,"x_min":0,"x_max":0,"o":"m 332 933 b 396 928 353 932 375 931 b 546 879 447 919 499 904 b 669 776 593 854 636 819 b 747 617 707 729 732 674 b 768 444 763 560 768 501 l 768 442 b 747 265 768 383 763 324 b 664 99 731 206 704 147 b 485 -22 611 35 544 -3 b 382 -42 451 -33 417 -40 b 360 -42 375 -42 368 -42 b 339 -42 353 -42 347 -42 l 276 -42 b 235 0 253 -42 235 -24 b 276 42 235 24 253 42 l 342 42 b 360 42 349 42 354 42 b 378 42 367 42 372 42 b 460 57 406 43 433 49 b 600 151 506 72 558 101 b 668 286 632 189 654 236 b 688 439 682 335 688 386 l 688 442 b 669 593 688 493 682 544 b 607 722 657 640 636 685 b 510 803 581 756 547 783 b 386 842 472 822 431 835 b 333 847 368 844 351 846 l 286 847 b 244 889 263 847 244 865 b 286 931 244 913 263 931 l 335 931 m 117 892 b 158 933 117 915 135 933 b 200 892 182 933 200 915 l 200 3 b 158 -39 200 -21 182 -39 b 117 3 135 -39 117 -21 l 117 892 "},"e":{"ha":849,"x_min":0,"x_max":0,"o":"m 279 436 b 238 478 256 436 238 454 b 279 519 238 501 256 519 l 638 519 b 679 478 661 519 679 501 b 638 436 679 454 661 436 l 279 436 m 276 -42 b 235 0 253 -42 235 -24 b 276 42 235 24 253 42 l 721 42 b 763 0 744 42 763 24 b 721 -42 763 -24 744 -42 l 276 -42 m 118 889 b 160 931 118 913 136 931 b 201 889 183 931 201 913 l 201 0 b 160 -42 201 -24 183 -42 b 118 0 136 -42 118 -24 l 118 889 m 719 931 b 761 889 743 931 761 913 b 719 847 761 865 743 847 l 279 847 b 238 889 256 847 238 865 b 279 931 238 913 256 931 l 719 931 "},"f":{"ha":793,"x_min":0,"x_max":0,"o":"m 279 436 b 238 478 256 436 238 454 b 279 519 238 501 256 519 l 615 519 b 657 478 639 519 657 501 b 615 436 657 454 639 436 l 279 436 m 118 889 b 160 931 118 913 136 931 b 201 889 183 931 201 913 l 201 0 b 160 -42 201 -24 183 -42 b 118 0 136 -42 118 -24 l 118 889 m 697 931 b 739 889 721 931 739 913 b 697 847 739 865 721 847 l 279 847 b 238 889 256 847 238 865 b 279 931 238 913 256 931 l 697 931 "},"g":{"ha":933,"x_min":0,"x_max":0,"o":"m 621 826 b 560 844 601 835 581 840 b 497 851 539 849 518 851 b 435 844 476 851 456 849 b 374 826 414 840 393 835 b 317 797 354 818 335 808 b 257 749 294 783 275 767 b 208 686 239 729 222 708 b 172 615 194 664 182 640 b 154 560 165 597 160 579 b 142 501 149 540 144 521 b 138 443 139 482 138 463 b 138 435 138 443 138 438 b 138 426 138 435 138 429 b 146 364 139 406 142 385 b 163 303 150 343 156 322 b 188 246 169 283 178 264 b 222 190 197 226 208 208 b 268 140 236 172 251 156 b 318 100 283 125 300 111 b 375 71 336 89 356 79 b 436 53 394 63 415 57 b 499 46 457 49 478 46 b 581 57 526 46 554 50 b 656 89 607 64 632 75 b 764 235 710 121 751 175 b 769 290 767 246 769 268 l 769 432 b 811 474 769 456 788 474 b 853 432 835 474 853 456 l 853 292 b 847 218 853 285 853 247 b 699 17 828 129 768 58 b 601 -25 668 -1 635 -15 b 499 -39 568 -35 533 -39 b 419 -31 472 -39 446 -36 b 343 -7 393 -25 368 -17 b 272 29 318 3 294 15 b 210 78 250 43 229 60 b 156 136 190 96 172 115 b 113 203 139 157 125 179 b 83 272 101 225 92 249 b 64 346 75 296 68 321 b 56 421 60 371 57 396 b 56 429 56 424 56 426 b 56 438 56 432 56 435 b 60 508 56 461 57 485 b 72 576 63 532 67 554 b 93 643 78 599 85 621 b 136 726 106 672 119 700 b 194 801 153 753 172 778 b 268 864 217 825 242 846 b 339 900 290 878 314 890 b 415 922 364 910 389 917 b 494 931 442 928 468 931 b 574 922 521 931 547 928 b 650 900 600 917 625 910 b 721 864 675 890 699 878 b 733 806 740 851 746 825 b 675 793 721 786 694 781 b 618 822 657 804 638 814 m 417 390 b 375 433 393 390 375 410 b 418 475 375 457 394 475 l 681 474 b 722 431 704 474 722 454 b 679 389 722 407 703 389 l 417 390 "},"h":{"ha":924,"x_min":0,"x_max":0,"o":"m 722 889 b 764 931 722 913 740 931 b 806 889 788 931 806 913 l 806 0 b 764 -42 806 -24 788 -42 b 722 0 740 -42 722 -24 l 722 889 m 278 436 b 236 478 254 436 236 454 b 278 519 236 501 254 519 l 647 519 b 689 478 671 519 689 501 b 647 436 689 454 671 436 l 278 436 m 117 889 b 158 931 117 913 135 931 b 200 889 182 931 200 913 l 200 0 b 158 -42 200 -24 182 -42 b 117 0 135 -42 117 -24 l 117 889 "},"i":{"ha":319,"x_min":0,"x_max":0,"o":"m 118 889 b 160 931 118 913 136 931 b 201 889 183 931 201 913 l 201 0 b 160 -42 201 -24 183 -42 b 118 0 136 -42 118 -24 l 118 889 "},"j":{"ha":792,"x_min":0,"x_max":0,"o":"m 682 282 b 640 240 682 258 664 240 b 599 282 617 240 599 258 l 599 889 b 640 931 599 913 617 931 b 682 889 664 931 682 913 l 682 282 m 597 57 b 372 -40 539 -4 457 -40 l 371 -40 b 163 40 294 -40 219 -11 b 63 240 106 92 69 164 b 100 285 61 263 78 283 b 144 247 122 286 143 269 b 218 99 149 197 172 140 b 372 39 264 57 322 39 l 374 39 b 538 110 435 39 496 65 b 567 150 549 122 558 136 b 622 165 578 169 603 176 b 638 110 642 154 649 129 b 597 56 626 90 613 72 "},"k":{"ha":851,"x_min":0,"x_max":0,"o":"m 325 368 b 325 428 308 385 308 411 b 385 428 342 444 368 444 l 782 31 b 782 -29 799 14 799 -12 b 722 -29 765 -46 739 -46 l 325 368 m 294 457 b 235 457 278 440 251 440 b 235 517 218 474 218 500 l 639 921 b 699 921 656 938 682 938 b 699 861 715 904 715 878 l 294 457 m 201 0 b 160 -42 201 -24 183 -42 b 118 0 136 -42 118 -24 l 118 889 b 160 931 118 913 136 931 b 201 889 183 931 201 913 l 201 0 "},"l":{"ha":775,"x_min":0,"x_max":0,"o":"m 299 -42 b 257 0 275 -42 257 -24 b 299 42 257 24 275 42 l 717 42 b 758 0 740 42 758 24 b 717 -42 758 -24 740 -42 l 299 -42 m 118 889 b 160 931 118 913 136 931 b 201 889 183 931 201 913 l 201 0 b 160 -42 201 -24 183 -42 b 118 0 136 -42 118 -24 l 118 889 "},"m":{"ha":1242,"x_min":0,"x_max":0,"o":"m 1046 908 b 1103 926 1057 929 1082 938 b 1121 869 1124 915 1132 890 l 750 156 b 693 138 739 135 714 126 b 675 194 672 149 664 174 l 1046 908 m 1125 0 b 1083 -42 1125 -24 1107 -42 b 1042 0 1060 -42 1042 -24 l 1042 619 b 1083 661 1042 643 1060 661 b 1125 619 1107 661 1125 643 l 1125 0 m 242 640 b 261 696 232 661 240 686 b 317 676 282 706 307 697 l 650 17 b 631 -39 660 -4 651 -29 b 575 -19 610 -49 585 -40 l 242 640 m 201 0 b 160 -42 201 -24 183 -42 b 118 0 136 -42 118 -24 l 118 889 b 160 931 118 913 136 931 b 201 889 183 931 201 913 l 201 0 "},"n":{"ha":921,"x_min":0,"x_max":0,"o":"m 804 278 b 763 236 804 254 786 236 b 721 278 739 236 721 254 l 721 889 b 763 931 721 913 739 931 b 804 889 786 931 804 913 l 804 278 m 126 865 b 139 924 114 885 119 911 b 197 911 158 936 185 931 l 799 22 b 786 -36 811 3 806 -24 b 728 -24 767 -49 740 -43 l 126 865 m 203 0 b 161 -42 203 -24 185 -42 b 119 0 138 -42 119 -24 l 119 611 b 161 653 119 635 138 653 b 203 611 185 653 203 635 l 203 0 "},"o":{"ha":1024,"x_min":0,"x_max":0,"o":"m 501 931 b 951 444 753 931 951 710 b 501 -42 951 179 753 -42 b 51 444 250 -42 51 179 b 501 931 51 710 250 931 m 133 444 b 500 42 133 219 300 42 b 867 444 700 42 867 219 b 500 847 867 669 700 847 b 133 444 300 847 133 669 "},"p":{"ha":842,"x_min":0,"x_max":0,"o":"m 119 889 b 161 931 119 913 138 931 b 203 889 185 931 203 913 l 203 0 b 161 -42 203 -24 185 -42 b 119 0 138 -42 119 -24 l 119 889 m 503 931 b 778 644 693 931 778 794 b 519 374 778 471 664 374 l 306 374 b 264 415 282 374 264 392 b 306 457 264 439 282 457 l 519 457 b 694 644 625 457 694 525 b 503 847 694 735 656 847 l 301 847 b 260 889 278 847 260 865 b 301 931 260 913 278 931 l 503 931 "},"q":{"ha":1039,"x_min":0,"x_max":0,"o":"m 904 29 b 904 -31 921 13 921 -14 b 844 -31 888 -47 861 -47 l 496 318 b 496 378 479 335 479 361 b 556 378 513 394 539 394 l 904 29 m 501 -44 b 51 442 250 -44 51 176 b 501 928 51 707 250 928 b 951 442 753 928 951 707 b 892 201 951 354 929 272 b 835 183 881 181 856 172 b 817 240 814 194 806 219 b 867 443 849 300 867 369 b 500 846 867 668 700 846 b 133 443 300 846 133 668 b 500 40 133 218 300 40 b 639 71 549 40 596 51 b 694 50 660 81 685 71 b 674 -6 704 29 694 4 b 501 -42 621 -29 563 -42 "},"r":{"ha":903,"x_min":0,"x_max":0,"o":"m 375 331 b 374 389 358 346 358 372 b 432 390 389 406 415 406 l 813 29 b 814 -29 829 14 829 -12 b 756 -31 799 -46 772 -46 l 375 331 m 119 889 b 161 931 119 913 138 931 b 203 889 185 931 203 913 l 203 0 b 161 -42 203 -24 185 -42 b 119 0 138 -42 119 -24 l 119 889 m 519 929 b 779 676 675 929 779 844 b 522 429 779 510 674 429 l 308 429 b 267 471 285 429 267 447 b 308 513 267 494 285 513 l 522 513 b 696 678 661 513 696 592 b 519 847 696 775 653 847 l 300 847 b 258 889 276 847 258 865 b 300 931 258 913 276 931 l 519 931 "},"s":{"ha":810,"x_min":0,"x_max":0,"o":"m 547 804 b 410 846 504 836 451 846 l 407 846 b 332 833 381 846 356 842 b 269 796 308 825 286 813 b 232 713 239 765 233 729 b 188 672 231 689 211 671 b 147 717 164 674 146 693 b 207 854 149 744 158 804 b 301 914 233 882 267 901 b 403 929 335 925 369 929 l 406 929 b 592 871 471 929 538 911 b 693 685 647 829 689 761 b 653 640 694 661 676 642 b 608 681 629 639 610 657 b 540 804 606 732 576 778 m 286 583 b 419 504 328 540 383 517 b 618 419 479 482 557 464 b 658 386 632 410 646 399 b 656 328 674 369 672 343 b 597 331 639 313 613 314 b 569 354 589 339 579 347 b 390 426 521 389 456 403 b 225 526 332 447 272 478 b 188 576 211 542 199 558 b 200 633 175 596 181 621 b 257 621 219 646 244 640 b 286 585 265 608 275 596 m 719 219 b 642 42 719 149 688 85 b 531 -22 610 11 571 -10 b 408 -40 490 -35 449 -40 l 407 -40 b 268 -18 360 -40 313 -33 b 144 58 222 -3 179 22 b 68 243 96 107 68 174 b 68 251 68 246 68 249 b 113 292 69 275 89 293 b 154 247 136 290 154 271 b 154 242 154 247 154 243 b 207 115 154 196 174 149 b 299 58 232 90 264 71 b 410 40 333 46 371 40 l 411 40 b 507 54 444 40 476 44 b 588 100 538 64 565 79 b 639 218 619 131 639 175 l 639 221 b 681 264 639 244 657 264 b 724 222 704 264 724 246 l 724 218 "},"t":{"ha":796,"x_min":0,"x_max":0,"o":"m 354 764 b 396 806 354 788 372 806 b 438 764 419 806 438 788 l 438 0 b 396 -42 438 -24 419 -42 b 354 0 372 -42 354 -24 l 354 764 m 722 931 b 764 889 746 931 764 913 b 722 847 764 865 746 847 l 71 847 b 29 889 47 847 29 865 b 71 931 29 913 47 931 l 722 931 "},"u":{"ha":958,"x_min":0,"x_max":0,"o":"m 186 236 b 144 194 186 213 168 194 b 103 236 121 194 103 213 l 103 889 b 144 931 103 913 121 931 b 186 889 168 931 186 913 l 186 236 m 294 76 b 474 42 358 46 429 42 b 656 78 565 42 624 63 b 724 126 682 90 706 107 b 782 129 739 143 765 144 b 785 71 799 114 800 88 b 692 3 757 42 725 19 b 474 -42 653 -17 582 -42 b 257 3 388 -42 315 -25 b 164 71 224 19 192 42 b 167 129 149 88 150 114 b 225 126 183 144 210 143 b 293 78 243 107 267 90 m 765 888 b 807 929 765 911 783 929 b 849 888 831 929 849 911 l 849 235 b 807 193 849 211 831 193 b 765 235 783 193 765 211 l 765 888 "},"v":{"ha":861,"x_min":0,"x_max":0,"o":"m 464 14 b 439 -40 472 -8 461 -32 b 385 -15 417 -49 393 -37 l 56 874 b 81 928 47 896 58 919 b 135 903 103 936 126 925 l 464 14 m 717 903 b 771 928 725 925 749 936 b 796 874 793 919 804 896 l 563 249 b 508 224 554 226 531 215 b 483 278 486 232 475 256 l 717 903 "},"w":{"ha":1265,"x_min":0,"x_max":0,"o":"m 964 244 b 910 219 956 222 932 211 b 885 274 888 228 876 251 l 1119 904 b 1174 929 1128 926 1151 938 b 1199 875 1196 921 1207 897 l 964 244 m 653 339 b 676 392 644 360 656 383 b 729 368 697 400 721 389 l 867 15 b 843 -37 875 -6 864 -29 b 790 -14 822 -46 799 -35 l 653 339 m 547 211 b 493 186 539 189 515 178 b 468 240 471 194 460 218 l 715 904 b 769 929 724 926 747 938 b 794 875 792 921 803 897 l 547 211 m 56 875 b 81 929 47 897 58 921 b 135 904 103 938 126 926 l 464 15 b 439 -39 472 -7 461 -31 b 385 -14 417 -47 393 -36 l 56 875 "},"x":{"ha":1083,"x_min":0,"x_max":0,"o":"m 1008 28 b 1006 -31 1024 11 1022 -15 b 947 -28 989 -46 963 -44 l 135 861 b 138 919 119 878 121 904 b 196 917 154 935 181 933 l 1008 28 m 693 574 b 635 571 678 557 651 556 b 632 629 618 586 617 613 l 896 915 b 954 918 911 932 938 933 b 957 860 971 903 972 876 l 693 574 m 139 -29 b 81 -32 124 -46 97 -47 b 78 26 64 -17 63 10 l 410 385 b 468 388 425 401 451 403 b 471 329 485 372 486 346 l 139 -29 "},"y":{"ha":915,"x_min":0,"x_max":0,"o":"m 496 0 b 454 -42 496 -24 478 -42 b 413 0 431 -42 413 -24 l 413 333 b 454 375 413 357 431 375 b 496 333 478 375 496 357 l 496 0 m 485 503 b 482 444 500 486 499 460 b 424 447 465 429 439 431 l 44 861 b 47 919 29 878 31 904 b 106 917 64 935 90 933 l 485 503 m 804 917 b 863 919 819 933 846 935 b 865 861 879 904 881 878 l 625 600 b 567 597 610 583 583 582 b 564 656 550 613 549 639 l 804 917 "},"z":{"ha":976,"x_min":0,"x_max":0,"o":"m 829 932 b 871 890 853 932 871 914 b 829 849 871 867 853 849 l 143 849 b 101 890 119 849 101 867 b 143 932 101 914 119 932 l 829 932 m 151 -26 b 93 -33 138 -44 111 -47 b 86 25 75 -19 72 7 l 700 783 b 758 790 714 801 740 804 b 765 732 776 776 779 750 l 151 -26 m 879 42 b 921 0 903 42 921 24 b 879 -42 921 -24 903 -42 l 325 -42 b 283 0 301 -42 283 -24 b 325 42 283 24 301 42 l 879 42 "},"{":{"ha":236,"x_min":0,"x_max":0,"o":"m 129 415 b 121 385 129 403 126 393 b 129 354 128 371 128 358 l 129 -90 b 182 -75 129 -90 135 -76 b 185 -72 183 -75 183 -72 b 188 -75 186 -72 188 -74 b 224 -121 210 -78 226 -99 b 178 -157 221 -143 200 -160 b 178 -157 178 -157 178 -157 b 46 -89 154 -153 46 -133 l 46 343 b 19 346 40 344 32 346 b -22 388 -4 346 -22 364 b 19 429 -22 411 -4 429 b 47 431 38 429 43 429 l 47 869 b 128 946 47 915 79 946 b 200 932 157 946 179 939 b 224 878 222 924 232 899 b 169 856 215 857 190 846 b 131 865 163 858 140 864 "},"|":{"ha":167,"x_min":0,"x_max":0,"o":"m 125 -58 b 83 -100 125 -82 107 -100 b 42 -58 60 -100 42 -82 l 42 894 b 83 936 42 918 60 936 b 125 894 107 936 125 918 l 125 -58 "},"}":{"ha":236,"x_min":0,"x_max":0,"o":"m 188 -81 b 108 -162 188 -139 147 -162 b 54 -149 49 -162 60 -149 b 10 -111 32 -150 13 -133 b 46 -65 7 -89 24 -68 l 47 -65 b 103 -79 64 -65 82 -78 l 103 364 b 111 394 104 368 104 381 b 103 425 106 403 103 413 l 103 868 b 64 858 93 867 71 861 b 10 881 43 849 18 860 b 33 935 1 901 11 926 b 106 949 54 942 76 949 b 186 872 154 949 186 918 l 186 433 b 214 432 190 432 196 432 b 256 390 238 432 256 414 b 214 349 256 367 238 349 b 188 346 201 349 193 347 "},"~":{"ha":367,"x_min":0,"x_max":0,"o":"m 386 793 b 381 761 385 774 385 774 b 376 750 381 758 379 756 b 335 701 367 728 350 711 b 276 682 319 692 300 683 b 271 682 275 682 272 682 b 219 693 253 682 235 686 b 140 749 185 707 156 736 b 114 765 131 757 122 763 b 100 769 108 768 106 769 b 96 769 100 769 97 769 b 93 769 96 769 94 769 b 76 763 89 769 81 768 b 74 753 74 758 74 754 b 74 749 74 751 74 750 b 47 696 81 726 69 703 b -6 722 25 689 1 700 b -11 754 -10 735 -11 744 b 7 814 -11 775 -6 796 b 85 857 11 821 36 853 b 93 857 86 857 92 857 b 104 857 93 857 101 857 b 144 846 121 856 125 854 b 189 817 154 842 168 833 b 246 774 222 789 226 782 b 265 769 253 771 260 769 l 267 769 b 283 775 274 769 279 772 b 293 786 289 778 292 782 b 293 789 297 797 293 789 b 294 796 294 792 294 792 b 293 800 294 800 294 796 b 326 849 289 822 304 844 b 375 815 349 853 371 838 b 378 794 376 811 378 799 "},"":{"ha":386,"x_min":0,"x_max":0,"o":""},"":{"ha":251,"x_min":0,"x_max":0,"o":"m 181 481 b 222 439 204 481 222 463 b 181 397 222 415 204 397 l 64 397 b 22 439 40 397 22 415 b 64 481 22 463 40 481 l 181 481 "},"":{"ha":181,"x_min":0,"x_max":0,"o":"m 49 619 b 90 661 49 643 67 661 b 132 619 114 661 132 643 l 132 -61 b 90 -103 132 -85 114 -103 b 49 -61 67 -103 49 -85 m 90 689 b -3 782 39 689 -3 731 b 90 875 -3 833 39 875 b 183 782 142 875 183 833 b 90 689 183 731 142 689 "},"":{"ha":831,"x_min":0,"x_max":0,"o":"m 457 -37 b 451 -37 456 -37 453 -37 b 246 24 379 -36 307 -15 b 100 185 183 63 133 119 b 49 386 68 247 51 317 b 49 404 49 392 49 397 b 85 592 49 468 61 532 b 247 794 117 672 172 746 b 454 857 308 835 381 857 l 454 857 b 661 794 528 857 600 835 b 674 742 679 783 685 760 b 621 729 663 724 639 718 b 454 779 579 757 521 779 l 454 779 b 288 729 388 779 329 757 b 156 563 219 685 178 619 b 126 404 136 513 126 458 b 126 390 126 399 126 394 b 168 222 128 332 142 274 b 288 90 196 168 238 122 b 454 39 338 58 396 40 l 460 39 b 690 135 538 39 625 69 b 744 135 706 150 729 150 b 744 81 760 119 760 96 b 461 -37 664 0 557 -37 m 485 153 b 443 111 485 129 467 111 b 401 153 419 111 401 129 l 401 647 b 443 689 401 671 419 689 b 485 647 467 689 485 671 l 485 153 "},"":{"ha":632,"x_min":0,"x_max":0,"o":"m 160 96 b 143 103 154 99 149 101 b 114 107 133 106 124 107 b 85 101 103 107 93 106 b 67 86 76 97 71 92 b 61 67 63 79 61 72 l 61 65 b 67 49 61 58 64 53 b 82 38 69 44 75 40 b 86 36 82 38 85 36 b 97 35 90 35 92 35 b 103 35 97 35 101 35 b 124 43 110 36 117 39 b 160 90 138 53 150 69 l 163 97 m 479 665 b 478 686 479 672 479 679 b 449 750 474 710 464 732 b 392 792 433 768 414 783 b 339 803 375 799 357 803 b 321 801 332 803 326 803 b 247 765 293 797 267 785 b 206 692 224 743 211 715 b 201 651 203 679 201 665 b 211 581 201 629 206 606 b 246 454 221 540 235 499 b 250 429 247 446 249 438 l 446 429 b 488 388 469 429 488 411 b 446 346 488 364 469 346 l 264 346 b 268 263 267 318 268 290 l 268 257 b 258 135 268 218 267 176 b 340 82 288 115 314 96 b 422 54 367 68 394 58 b 447 53 431 53 439 53 b 515 68 471 53 494 58 b 581 129 543 81 567 103 b 638 147 592 150 617 158 b 656 90 658 136 667 111 b 553 -8 633 47 597 13 b 449 -31 519 -24 483 -31 b 411 -28 436 -31 424 -29 b 301 10 371 -22 335 -8 b 233 53 276 24 254 39 b 168 -26 221 25 200 -6 b 111 -47 151 -37 132 -44 b 93 -49 107 -47 97 -49 b 60 -43 72 -47 72 -47 b 49 -39 57 -42 53 -40 b -4 4 26 -31 8 -15 b -22 65 -18 25 -22 47 b -22 71 -22 67 -22 69 b 0 135 -21 97 -11 119 b 50 176 11 150 28 165 b 114 190 71 186 93 190 b 167 182 132 190 150 188 b 179 178 171 181 175 179 b 183 260 182 204 183 232 l 183 264 b 179 347 183 292 182 319 l 57 347 b 15 389 33 347 15 365 b 57 431 15 413 33 431 l 165 431 l 164 436 b 131 564 154 476 140 518 b 119 654 124 593 119 624 b 125 713 119 674 121 693 b 189 829 133 750 153 794 b 311 888 222 861 265 882 b 339 889 322 889 331 889 b 422 872 368 889 396 883 b 511 804 457 858 488 835 b 556 700 535 774 550 738 b 558 667 557 689 558 678 b 546 589 558 640 554 614 b 492 564 538 567 514 556 b 467 618 469 572 458 596 b 475 667 472 633 475 650 "},"":{"ha":672,"x_min":0,"x_max":0,"o":"m 442 561 b 336 604 413 590 375 604 b 235 565 300 604 264 592 b 231 561 233 564 232 563 b 226 557 229 560 228 558 b 188 456 200 528 188 492 b 231 350 188 417 201 379 b 336 307 260 321 297 307 b 433 344 371 307 406 319 b 440 353 435 347 438 350 b 449 360 443 356 446 358 b 486 457 474 388 486 422 b 443 563 486 496 472 533 m 144 322 b 103 456 117 363 103 410 b 144 589 103 501 117 549 l 69 664 b 69 724 53 681 53 707 b 129 724 86 740 113 740 l 204 649 b 338 690 244 676 292 690 b 471 649 383 690 431 676 l 546 724 b 606 724 563 740 589 740 b 606 664 622 707 622 681 l 531 589 b 572 456 558 549 572 501 b 531 322 572 410 558 363 l 606 247 b 606 188 622 231 622 204 b 546 188 589 171 563 171 l 471 263 b 338 221 431 235 383 221 b 204 263 292 221 244 235 l 129 188 b 69 188 113 171 86 171 b 69 247 53 204 53 231 l 144 322 "},"":{"ha":958,"x_min":0,"x_max":0,"o":"m 703 375 b 744 338 726 375 744 358 b 703 300 744 317 726 300 l 518 300 l 518 -1 b 476 -43 518 -25 500 -43 b 435 -1 453 -43 435 -25 l 435 300 l 267 300 b 225 338 243 300 225 317 b 267 375 225 358 243 375 l 703 375 m 703 517 b 744 479 726 517 744 500 b 703 442 744 458 726 442 l 267 442 b 225 479 243 442 225 458 b 267 517 225 500 243 517 l 383 517 l 435 461 b 494 463 450 444 478 447 b 507 503 511 478 522 486 l 496 515 l 703 515 m 828 918 b 886 921 843 935 869 936 b 889 863 903 906 904 879 l 649 601 b 590 599 633 585 607 583 b 588 657 574 614 572 640 l 828 918 m 496 517 l 129 918 b 71 921 114 935 88 936 b 68 863 54 906 53 879 l 385 517 "},"":{"ha":167,"x_min":0,"x_max":0,"o":"m 125 524 b 83 482 125 500 107 482 b 42 524 60 482 42 500 l 42 850 b 83 892 42 874 60 892 b 125 850 107 892 125 874 l 125 524 m 125 0 b 83 -42 125 -24 107 -42 b 42 0 60 -42 42 -24 l 42 326 b 83 368 42 350 60 368 b 125 326 107 368 125 350 l 125 0 "},"":{"ha":853,"x_min":0,"x_max":0,"o":"m 693 171 b 701 224 699 188 701 206 b 701 233 701 228 701 229 b 675 313 700 261 690 289 b 613 371 660 336 638 356 b 429 435 561 403 486 417 b 274 517 376 451 321 474 b 214 593 250 538 229 564 b 197 640 207 608 201 624 b 189 588 192 624 189 606 b 189 579 189 588 189 582 b 206 515 190 557 196 535 b 246 463 215 496 229 478 b 369 397 265 444 297 421 b 571 324 431 378 508 363 b 658 240 604 303 635 275 b 690 169 672 218 683 194 m 181 -10 b 342 -72 231 -42 286 -64 b 388 -76 357 -75 372 -76 b 485 -60 421 -76 454 -71 b 585 10 524 -46 560 -22 b 621 111 607 38 621 75 b 621 121 621 115 621 117 b 594 200 619 149 610 176 b 532 258 579 224 557 243 b 349 322 481 290 406 304 b 193 404 296 339 240 361 b 133 481 169 425 149 451 b 107 578 118 510 108 543 b 107 589 107 581 107 586 b 135 700 107 628 117 667 b 203 779 151 732 175 758 b 219 817 207 792 213 804 b 303 906 239 854 268 885 b 415 940 338 926 376 938 b 435 940 421 940 426 940 b 528 925 467 940 499 935 b 636 868 567 913 603 893 l 636 899 b 678 940 636 922 654 940 b 719 899 701 940 719 922 l 719 767 b 690 726 719 747 708 732 b 643 742 672 721 654 726 b 500 849 613 783 564 828 b 433 860 478 856 456 860 b 419 860 428 860 424 860 b 344 836 393 858 367 850 b 290 779 322 822 303 803 b 278 747 285 769 281 758 b 276 739 278 744 278 742 b 272 706 274 728 272 717 b 272 697 272 706 272 700 b 289 633 274 675 279 653 b 329 581 299 614 313 596 b 453 515 349 563 381 539 b 654 442 514 496 592 481 b 742 358 688 421 718 393 b 783 239 765 324 781 282 b 783 224 783 235 783 228 b 731 71 783 168 764 114 b 686 24 718 54 704 38 b 647 -46 676 -1 664 -25 b 508 -140 607 -96 554 -125 b 385 -161 468 -154 426 -161 b 326 -157 365 -161 346 -160 b 133 -83 257 -147 192 -121 b 76 -42 114 -71 94 -57 b 71 18 58 -26 56 0 b 131 24 86 36 113 39 b 179 -12 146 11 163 -1 "},"":{"ha":361,"x_min":0,"x_max":0,"o":"m 256 861 b 308 808 282 861 308 840 b 256 756 308 782 288 756 b 203 808 229 756 203 776 b 256 861 203 835 224 861 m 106 861 b 158 808 132 861 158 840 b 106 756 158 782 138 756 b 53 808 79 756 53 776 b 106 861 53 835 74 861 "},"":{"ha":294,"x_min":0,"x_max":0,"o":"m 203 772 b 193 758 203 765 199 760 b 178 764 188 757 182 758 b 150 779 176 767 168 778 b 147 779 150 779 149 779 b 128 775 140 779 133 778 b 113 760 122 772 117 767 b 103 726 107 750 104 739 b 103 721 103 724 103 722 b 111 689 103 708 106 697 b 129 674 115 683 121 678 b 157 668 138 669 147 668 l 157 668 b 189 675 168 668 179 671 b 207 668 196 678 204 675 b 200 650 210 661 207 653 b 158 642 188 644 174 642 l 158 642 b 119 650 146 642 132 644 b 90 676 110 656 99 664 b 79 724 82 692 79 708 b 79 732 79 726 79 729 b 92 778 81 747 83 764 b 118 804 99 790 108 799 b 150 813 128 810 139 813 b 156 813 151 813 154 813 b 181 804 165 811 174 808 b 193 811 183 808 188 811 b 207 797 201 811 207 806 l 207 776 m 143 863 b 283 722 221 863 283 800 b 143 582 283 644 221 582 b 3 722 65 582 3 644 b 143 863 3 800 65 863 m 31 722 b 143 610 31 660 81 610 b 256 722 206 610 256 660 b 143 835 256 785 206 835 b 31 722 81 835 31 785 "},"":{"ha":494,"x_min":0,"x_max":0,"o":"m 425 713 b 447 690 438 713 447 703 b 425 668 447 678 438 668 l 310 668 b 288 690 297 668 288 678 b 310 713 288 703 297 713 l 425 713 m 311 911 b 339 924 315 922 328 928 b 351 896 350 919 356 907 l 192 521 b 164 508 188 510 175 504 b 151 536 153 513 147 525 l 311 911 m 585 536 b 572 508 589 525 583 513 b 544 521 561 504 549 510 l 347 985 b 360 1013 343 996 349 1008 b 388 1000 371 1017 383 1011 l 585 536 "},"":{"ha":592,"x_min":0,"x_max":0,"o":"m 439 181 b 522 136 467 167 494 151 b 538 81 542 125 549 100 b 482 65 526 61 501 54 b 399 108 454 81 426 94 b 324 143 374 121 349 132 b 300 181 308 150 300 164 b 325 218 300 197 310 211 b 400 253 350 229 375 240 b 483 297 428 267 456 282 b 539 282 503 308 528 301 b 524 226 550 263 543 238 b 439 182 496 211 468 196 m 181 178 l 183 176 b 271 129 214 161 243 144 b 286 74 290 118 297 93 b 231 58 275 54 250 47 b 149 103 203 74 175 89 b 74 140 122 117 97 131 b 50 178 58 147 50 161 b 75 215 50 194 60 208 b 150 253 99 225 124 239 b 232 300 176 267 204 283 b 288 285 251 311 276 304 b 272 229 299 265 292 240 b 185 182 244 214 215 197 "},"":{"ha":385,"x_min":0,"x_max":0,"o":"m 363 432 b 404 390 386 432 404 414 l 404 290 b 363 249 404 267 386 249 b 321 290 339 249 321 267 l 321 349 l 22 349 b -19 390 -1 349 -19 367 b 22 432 -19 414 -1 432 l 363 432 "},"":{"ha":219,"x_min":0,"x_max":0,"o":"m 194 432 b 236 390 218 432 236 414 b 194 349 236 367 218 349 l 21 349 b -21 390 -3 349 -21 367 b 21 432 -21 414 -3 432 l 196 432 "},"":{"ha":294,"x_min":0,"x_max":0,"o":"m 135 743 l 135 743 l 156 743 b 176 761 168 743 176 750 b 156 783 176 779 167 783 l 131 783 l 131 743 m 104 639 b 90 653 96 639 90 644 b 104 667 90 661 96 667 l 106 667 l 106 782 l 104 782 b 90 796 96 782 90 788 b 104 810 90 804 96 810 l 119 810 l 122 810 l 158 810 b 207 760 188 810 207 790 b 158 715 207 733 186 715 b 204 664 168 697 183 674 b 211 646 211 661 214 653 b 193 639 208 639 200 636 b 132 706 164 653 146 681 l 132 668 l 133 668 b 147 654 142 668 147 663 b 133 640 147 646 142 640 l 118 640 l 103 640 m 150 865 b 290 725 228 865 290 803 b 150 585 290 647 228 585 b 10 725 72 585 10 647 b 150 865 10 803 72 865 m 38 725 b 150 613 38 663 88 613 b 263 725 213 613 263 663 b 150 838 263 788 213 838 b 38 725 88 838 38 788 "},"":{"ha":463,"x_min":0,"x_max":0,"o":"m 410 432 b 451 390 433 432 451 414 b 410 349 451 367 433 349 l 53 349 b 11 390 29 349 11 367 b 53 432 11 414 29 432 l 410 432 "},"":{"ha":238,"x_min":0,"x_max":0,"o":"m 108 1272 b 208 1172 164 1272 208 1228 b 108 1072 208 1117 164 1072 b 8 1172 53 1072 8 1117 b 108 1272 8 1228 53 1272 m 92 1172 b 108 1156 92 1163 99 1156 b 125 1172 118 1156 125 1163 b 108 1189 125 1182 118 1189 b 92 1172 99 1189 92 1182 "},"":{"ha":568,"x_min":0,"x_max":0,"o":"m 457 -103 b 499 -144 481 -103 499 -121 b 457 -186 499 -168 481 -186 l 100 -186 b 58 -144 76 -186 58 -168 b 100 -103 58 -121 76 -103 l 457 -103 m 239 571 b 281 613 239 594 257 613 b 322 571 304 613 322 594 l 322 431 l 465 431 b 507 389 489 431 507 413 b 465 347 507 365 489 347 l 322 347 l 322 199 b 281 157 322 175 304 157 b 239 199 257 157 239 175 l 239 347 l 93 347 b 51 389 69 347 51 365 b 93 431 51 413 69 431 l 239 431 l 239 571 "},"":{"ha":542,"x_min":0,"x_max":0,"o":"m 422 356 b 394 346 414 349 406 346 l 92 346 b 50 383 69 346 53 361 b 50 403 50 389 50 394 b 94 531 50 449 67 493 b 222 639 114 557 144 590 b 343 722 281 675 314 693 b 371 761 360 739 367 753 b 375 785 374 769 375 778 b 374 794 375 789 375 792 b 342 835 369 813 354 826 b 269 854 324 846 299 854 l 268 854 b 193 833 240 854 213 846 b 154 790 179 825 161 810 b 101 763 147 768 124 756 b 74 815 79 769 67 793 b 149 904 76 825 92 871 b 267 936 183 925 225 936 l 269 936 b 386 904 317 936 357 922 b 454 814 421 883 446 851 b 458 785 457 803 458 793 b 447 731 458 765 454 747 b 401 664 436 704 419 682 b 265 568 360 622 296 586 b 160 481 254 561 192 524 b 135 428 147 464 139 446 l 376 428 l 426 472 b 485 469 443 488 469 486 b 482 411 500 453 499 426 l 419 356 "},"":{"ha":542,"x_min":0,"x_max":0,"o":"m 108 843 b 132 874 115 854 124 864 b 161 899 140 883 150 892 b 196 915 172 906 183 911 b 233 926 208 919 221 924 b 274 931 246 929 260 931 l 275 931 l 276 931 l 278 931 b 315 928 290 931 303 929 b 351 919 328 926 340 924 b 385 904 363 915 374 910 b 415 882 396 897 406 890 b 440 854 425 874 433 864 b 457 822 447 844 453 833 b 460 810 458 819 460 813 b 461 797 460 807 461 800 b 461 785 461 794 461 788 b 458 765 461 781 460 769 b 453 746 457 760 456 754 b 444 728 451 740 449 735 b 426 700 439 718 433 708 b 403 676 419 692 411 683 l 397 672 b 458 618 424 657 444 638 b 489 525 479 590 489 557 b 460 432 489 488 476 456 b 381 367 443 407 417 383 b 254 342 342 349 297 342 b 108 378 196 342 146 356 b 61 417 90 389 75 401 b 64 475 46 433 47 460 b 122 472 81 490 107 489 b 149 450 129 464 138 457 b 253 426 167 440 201 426 b 344 444 286 426 319 433 b 390 482 365 454 381 468 b 406 526 396 489 406 504 b 392 571 406 542 401 557 b 342 610 385 581 369 597 b 268 626 328 615 306 622 b 250 628 261 628 256 628 b 250 628 250 628 250 628 l 250 628 b 211 671 226 629 210 647 b 254 711 213 694 231 711 l 257 711 b 286 713 267 711 276 711 b 314 718 296 714 306 715 b 338 729 322 721 331 725 b 353 740 343 732 349 736 b 364 753 357 744 361 749 b 371 765 367 757 369 761 b 375 774 372 768 374 771 b 376 782 376 776 376 779 b 378 789 378 786 378 785 b 378 793 378 792 378 790 b 378 797 378 796 378 794 b 376 801 378 800 378 799 b 371 814 375 806 374 810 b 360 826 368 818 364 822 b 344 838 356 831 350 835 b 325 846 339 840 332 843 b 301 851 318 849 310 850 b 276 853 293 853 285 853 l 275 853 l 274 853 l 272 853 b 247 850 264 853 256 851 b 224 843 239 849 231 846 b 204 833 217 840 210 838 b 189 821 199 829 193 825 b 179 808 185 817 182 813 b 174 796 176 804 175 800 b 124 765 168 774 146 760 b 93 815 101 771 88 793 b 106 850 96 828 100 839 "},"":{"ha":225,"x_min":0,"x_max":0,"o":"m 47 671 b -12 676 29 656 3 658 b -7 736 -28 694 -25 721 b 89 854 28 765 64 806 b 144 874 99 875 124 883 b 164 818 165 864 174 839 b 49 672 133 756 89 707 "},"":{"ha":496,"x_min":0,"x_max":0,"o":"m 497 661 b 539 619 521 661 539 643 l 539 114 b 539 110 539 113 539 111 l 539 110 l 539 110 l 539 58 b 542 43 542 42 540 44 l 564 43 b 606 1 588 43 606 25 b 564 -40 606 -22 588 -40 l 539 -40 b 482 -15 535 -39 507 -40 b 460 18 471 -4 464 7 b 290 -42 419 -14 364 -42 b 139 -1 226 -42 176 -28 l 139 -264 l 160 -264 b 201 -306 183 -264 201 -282 b 160 -347 201 -329 183 -347 l 97 -347 l 97 -347 l 35 -347 b -7 -306 11 -347 -7 -329 b 35 -264 -7 -282 11 -264 l 56 -264 l 56 183 b 56 197 56 188 56 192 b 56 201 56 199 56 200 l 56 575 l 35 575 b -7 617 11 575 -7 593 b 35 658 -7 640 11 658 l 97 658 b 139 617 121 658 139 640 l 139 182 b 290 38 143 81 189 38 b 454 107 350 38 450 104 l 454 575 l 400 575 b 358 617 376 575 358 593 b 400 658 358 640 376 658 l 496 658 "},"":{"ha":485,"x_min":0,"x_max":0,"o":"m 233 736 l 172 736 b 85 632 113 736 85 693 b 174 532 85 557 126 533 l 232 532 m 401 824 b 449 824 429 824 449 824 b 489 779 472 822 490 803 b 444 739 488 756 468 738 b 432 739 442 739 439 739 l 432 -72 l 446 -72 b 488 -114 469 -72 488 -90 b 446 -156 488 -137 469 -156 l 390 -156 b 349 -114 367 -156 349 -137 l 349 739 l 317 739 l 317 514 b 317 489 317 506 317 497 b 317 486 317 488 317 486 l 317 -117 b 275 -158 317 -140 299 -158 l 218 -158 b 176 -117 194 -158 176 -140 b 218 -75 176 -93 194 -75 l 233 -75 l 233 447 l 174 447 b 1 632 81 450 1 513 b 172 819 1 744 69 819 l 275 819 l 275 819 b 400 819 278 819 350 819 "},"":{"ha":181,"x_min":0,"x_max":0,"o":"m 117 144 b 210 51 168 144 210 103 b 117 -42 210 0 168 -42 b 24 51 65 -42 24 0 b 117 144 24 103 65 144 "},"":{"ha":463,"x_min":0,"x_max":0,"o":"m 207 -121 b 206 -117 207 -119 207 -118 b 193 -111 201 -112 194 -111 b 190 -111 193 -111 192 -111 b 182 -112 188 -111 185 -111 b 135 -97 164 -118 146 -112 b 135 -49 124 -82 124 -64 l 188 26 b 247 36 201 46 228 50 b 257 -24 267 22 271 -4 l 244 -42 b 264 -56 251 -46 258 -50 b 293 -121 282 -72 293 -94 l 293 -122 b 268 -186 293 -154 276 -176 b 217 -215 253 -203 233 -211 b 175 -221 203 -219 189 -221 b 153 -219 168 -221 161 -221 b 94 -203 132 -217 113 -211 b 74 -147 74 -193 64 -168 b 129 -126 83 -126 108 -117 b 165 -136 140 -132 153 -135 b 179 -136 171 -136 175 -136 b 199 -133 186 -136 193 -135 b 213 -125 201 -132 208 -129 b 215 -119 214 -124 215 -121 "},"":{"ha":299,"x_min":0,"x_max":0,"o":"m 90 343 b 49 385 67 343 49 361 b 90 426 49 408 67 426 l 125 426 l 125 843 l 60 828 b 10 858 38 822 15 836 b 40 908 4 881 18 903 l 157 935 b 193 926 169 938 182 935 b 210 893 204 918 210 907 l 210 425 l 244 425 b 286 383 268 425 286 407 b 244 342 286 360 268 342 l 168 342 l 92 342 "},"":{"ha":389,"x_min":0,"x_max":0,"o":"m -26 628 b 10 786 -26 681 -18 736 b 76 860 25 814 47 840 b 174 892 101 876 135 890 b 179 892 175 892 178 892 b 276 865 208 892 243 885 b 346 794 306 847 329 822 b 390 617 381 739 390 676 b 351 449 390 561 382 501 b 286 379 336 422 314 397 b 190 349 254 358 219 350 b 185 349 189 349 186 349 b 92 375 157 349 124 356 b 22 442 63 392 39 415 b -24 611 -11 494 -22 554 b -24 628 -24 611 -24 628 m 58 613 b 92 486 60 565 69 521 b 133 446 103 469 117 456 b 185 432 151 436 169 432 l 188 432 b 239 447 203 432 221 436 b 278 490 254 457 268 472 b 307 615 299 525 307 569 b 275 750 307 667 299 713 b 232 793 264 768 249 783 b 179 808 214 804 194 808 l 176 808 b 122 790 160 808 140 803 b 82 746 106 779 92 764 b 57 628 64 713 57 671 b 57 614 57 628 57 614 "},"":{"ha":579,"x_min":0,"x_max":0,"o":"m 138 183 b 53 228 108 197 81 213 b 38 283 33 239 26 264 b 93 299 49 303 74 310 b 176 254 121 283 149 268 b 251 219 201 242 226 231 b 276 182 267 213 276 199 b 253 144 276 165 268 151 b 178 110 228 133 203 122 b 94 67 150 96 122 82 b 39 82 75 56 50 63 b 54 138 28 101 35 126 b 138 182 82 153 110 168 m 390 188 b 303 235 360 203 331 219 b 288 290 283 246 276 271 b 343 306 299 310 324 317 b 425 258 371 289 399 272 b 500 221 451 244 476 231 b 525 183 515 214 525 200 b 501 146 525 167 517 153 b 426 108 478 136 453 122 b 344 64 400 94 372 79 b 289 79 325 53 300 60 b 304 135 278 99 285 124 b 392 182 332 150 361 167 l 394 183 l 392 185 "},"":{"ha":953,"x_min":0,"x_max":0,"o":"m 90 343 b 49 385 67 343 49 361 b 90 426 49 408 67 426 l 125 426 l 125 843 l 60 828 b 10 858 38 822 15 836 b 40 908 4 881 18 903 l 157 935 b 193 926 169 938 182 935 b 210 893 204 918 210 907 l 210 425 l 244 425 b 286 383 268 425 286 407 b 244 342 286 360 268 342 l 168 342 l 92 342 m 546 139 b 510 161 529 139 517 147 b 513 203 503 175 504 189 l 760 653 b 818 665 772 672 799 678 b 831 607 838 653 843 626 l 626 222 l 736 222 b 778 181 760 222 778 204 b 736 139 778 157 760 139 l 549 139 m 900 1 b 858 -40 900 -22 882 -40 b 817 1 835 -40 817 -22 l 817 507 b 858 549 817 531 835 549 b 900 507 882 549 900 531 l 900 1 m 311 -24 b 258 -51 304 -46 281 -58 b 231 1 236 -44 224 -21 l 511 896 b 564 924 518 918 542 931 b 592 871 586 917 599 893 l 311 -24 "},"":{"ha":997,"x_min":0,"x_max":0,"o":"m 90 343 b 49 385 67 343 49 361 b 90 426 49 408 67 426 l 125 426 l 125 843 l 60 828 b 10 858 38 822 15 836 b 40 908 4 881 18 903 l 157 935 b 193 926 169 938 182 935 b 210 893 204 918 210 907 l 210 425 l 244 425 b 286 383 268 425 286 407 b 244 342 286 360 268 342 l 168 342 l 92 342 m 881 -31 b 853 -40 872 -37 864 -40 l 550 -40 b 508 -3 528 -40 511 -25 b 508 17 508 3 508 8 b 553 144 508 63 525 107 b 681 253 572 171 603 204 b 801 336 739 289 772 307 b 829 375 818 353 825 367 b 833 399 832 383 833 392 b 832 408 833 403 833 406 b 800 449 828 426 813 440 b 728 468 782 460 757 468 l 726 468 b 651 447 699 468 671 460 b 613 404 638 439 619 424 b 560 376 606 382 582 369 b 532 429 538 383 525 407 b 607 518 535 439 550 485 b 725 550 642 539 683 550 l 728 550 b 844 518 775 550 815 536 b 913 428 879 497 904 465 b 917 399 915 417 917 407 b 906 344 917 379 913 361 b 860 278 894 318 878 296 b 724 182 818 236 754 200 b 618 94 713 175 650 138 b 593 42 606 78 597 60 l 835 42 l 885 86 b 943 83 901 101 928 100 b 940 25 958 67 957 40 l 878 -31 m 315 -24 b 263 -51 308 -46 285 -58 b 235 1 240 -44 228 -21 l 515 896 b 568 924 522 918 546 931 b 596 871 590 917 603 893 l 315 -24 "},"":{"ha":997,"x_min":0,"x_max":0,"o":"m 90 343 b 49 385 67 343 49 361 b 90 426 49 408 67 426 l 125 426 l 125 843 l 60 828 b 10 858 38 822 15 836 b 40 908 4 881 18 903 l 157 935 b 193 926 169 938 182 935 b 210 893 204 918 210 907 l 210 425 l 244 425 b 286 383 268 425 286 407 b 244 342 286 360 268 342 l 168 342 l 92 342 m 546 139 b 510 161 529 139 517 147 b 513 203 503 175 504 189 l 760 653 b 818 665 772 672 799 678 b 831 607 838 653 843 626 l 626 222 l 736 222 b 778 181 760 222 778 204 b 736 139 778 157 760 139 l 549 139 m 900 1 b 858 -40 900 -22 882 -40 b 817 1 835 -40 817 -22 l 817 507 b 858 549 817 531 835 549 b 900 507 882 549 900 531 l 900 1 m 311 -24 b 258 -51 304 -46 281 -58 b 231 1 236 -44 224 -21 l 511 896 b 564 924 518 918 542 931 b 592 871 586 917 599 893 l 311 -24 "},"":{"ha":315,"x_min":0,"x_max":0,"o":"m 213 607 b 172 456 211 554 196 501 b 54 292 139 390 90 342 b 14 217 36 267 22 242 b 6 165 8 200 6 182 b 8 140 6 157 7 149 b 58 64 17 99 44 74 b 136 40 83 46 113 40 b 150 40 140 40 144 40 b 221 65 175 43 200 51 b 279 53 240 78 267 72 b 267 -6 292 33 286 7 b 158 -42 235 -26 197 -39 b 139 -42 150 -42 144 -42 b 13 -3 94 -42 50 -29 b -71 125 -31 28 -61 74 b -75 167 -74 139 -75 153 b -62 244 -75 193 -71 219 b -10 340 -50 281 -31 313 b 101 493 19 382 75 443 b 133 608 121 529 132 568 l 133 681 b 175 722 133 704 151 722 b 217 681 199 722 217 704 l 217 606 m 171 751 b 78 844 119 751 78 793 b 171 938 78 896 119 938 b 264 844 222 938 264 896 b 171 751 264 793 222 751 "},"":{"ha":908,"x_min":0,"x_max":0,"o":"m 557 356 b 599 314 581 356 599 338 b 557 272 599 290 581 272 l 335 272 b 293 314 311 272 293 290 b 335 356 293 338 311 356 l 557 356 m 336 736 b 392 757 346 757 371 767 b 413 701 413 747 422 722 l 104 -18 b 49 -39 94 -39 69 -49 b 28 17 28 -29 18 -4 l 336 736 m 867 17 b 846 -39 876 -4 867 -29 b 790 -18 825 -49 800 -39 l 410 871 b 431 926 400 892 410 917 b 486 906 451 936 476 926 l 867 17 m 493 1146 b 499 1086 511 1131 514 1104 b 439 1081 483 1068 457 1065 b 324 1226 399 1115 354 1164 b 343 1282 314 1247 322 1272 b 399 1263 364 1292 389 1283 b 494 1144 424 1214 460 1174 "},"":{"ha":908,"x_min":0,"x_max":0,"o":"m 557 356 b 599 314 581 356 599 338 b 557 272 599 290 581 272 l 335 272 b 293 314 311 272 293 290 b 335 356 293 338 311 356 l 557 356 m 336 736 b 392 757 346 757 371 767 b 413 701 413 747 422 722 l 104 -18 b 49 -39 94 -39 69 -49 b 28 17 28 -29 18 -4 l 336 736 m 867 17 b 846 -39 876 -4 867 -29 b 790 -18 825 -49 800 -39 l 410 871 b 431 926 400 892 410 917 b 486 906 451 936 476 926 l 867 17 m 468 1079 b 408 1085 450 1064 424 1067 b 414 1144 393 1103 396 1129 b 510 1263 449 1174 485 1214 b 565 1282 519 1283 544 1292 b 585 1226 586 1272 594 1247 b 469 1081 554 1164 510 1115 "},"":{"ha":908,"x_min":0,"x_max":0,"o":"m 557 356 b 599 314 581 356 599 338 b 557 272 599 290 581 272 l 335 272 b 293 314 311 272 293 290 b 335 356 293 338 311 356 l 557 356 m 336 736 b 392 757 346 757 371 767 b 413 701 413 747 422 722 l 104 -18 b 49 -39 94 -39 69 -49 b 28 17 28 -29 18 -4 l 336 736 m 867 17 b 846 -39 876 -4 867 -29 b 790 -18 825 -49 800 -39 l 410 871 b 431 926 400 892 410 917 b 486 906 451 936 476 926 l 867 17 m 417 1268 b 450 1285 425 1279 436 1285 b 483 1268 464 1285 475 1279 l 583 1136 b 575 1078 597 1118 593 1092 b 517 1086 557 1064 531 1068 l 450 1175 l 382 1086 b 324 1079 368 1068 342 1065 b 317 1138 306 1093 303 1119 l 418 1269 "},"":{"ha":908,"x_min":0,"x_max":0,"o":"m 557 356 b 599 314 581 356 599 338 b 557 272 599 290 581 272 l 335 272 b 293 314 311 272 293 290 b 335 356 293 338 311 356 l 557 356 m 336 736 b 392 757 346 757 371 767 b 413 701 413 747 422 722 l 104 -18 b 49 -39 94 -39 69 -49 b 28 17 28 -29 18 -4 l 336 736 m 867 17 b 846 -39 876 -4 867 -29 b 790 -18 825 -49 800 -39 l 410 871 b 431 926 400 892 410 917 b 486 906 451 936 476 926 l 867 17 m 658 1176 b 653 1144 657 1157 657 1157 b 649 1133 653 1142 651 1139 b 607 1085 639 1111 622 1094 b 549 1065 592 1075 572 1067 b 543 1065 547 1065 544 1065 b 492 1076 525 1065 507 1069 b 413 1132 457 1090 428 1119 b 386 1149 403 1140 394 1146 b 372 1153 381 1151 378 1153 b 368 1153 372 1153 369 1153 b 365 1153 368 1153 367 1153 b 349 1146 361 1153 353 1151 b 346 1136 346 1142 346 1138 b 346 1132 346 1135 346 1133 b 319 1079 353 1110 342 1086 b 267 1106 297 1072 274 1083 b 261 1138 263 1118 261 1128 b 279 1197 261 1158 267 1179 b 357 1240 283 1204 308 1236 b 365 1240 358 1240 364 1240 b 376 1240 365 1240 374 1240 b 417 1229 393 1239 397 1238 b 461 1200 426 1225 440 1217 b 518 1157 494 1172 499 1165 b 538 1153 525 1154 532 1153 l 539 1153 b 556 1158 546 1153 551 1156 b 565 1169 561 1161 564 1165 b 565 1172 569 1181 565 1172 b 567 1179 567 1175 567 1175 b 565 1183 567 1183 567 1179 b 599 1232 561 1206 576 1228 b 647 1199 621 1236 643 1221 b 650 1178 649 1194 650 1182 "},"":{"ha":908,"x_min":0,"x_max":0,"o":"m 557 356 b 599 314 581 356 599 338 b 557 272 599 290 581 272 l 335 272 b 293 314 311 272 293 290 b 335 356 293 338 311 356 l 557 356 m 336 736 b 392 757 346 757 371 767 b 413 701 413 747 422 722 l 104 -18 b 49 -39 94 -39 69 -49 b 28 17 28 -29 18 -4 l 336 736 m 867 17 b 846 -39 876 -4 867 -29 b 790 -18 825 -49 800 -39 l 410 871 b 431 926 400 892 410 917 b 486 906 451 936 476 926 l 867 17 m 532 1206 b 585 1153 558 1206 585 1185 b 532 1100 585 1126 564 1100 b 479 1153 506 1100 479 1121 b 532 1206 479 1179 500 1206 m 382 1206 b 435 1153 408 1206 435 1185 b 382 1100 435 1126 414 1100 b 329 1153 356 1100 329 1121 b 382 1206 329 1179 350 1206 "},"":{"ha":908,"x_min":0,"x_max":0,"o":"m 557 356 b 599 314 581 356 599 338 b 557 272 599 290 581 272 l 335 272 b 293 314 311 272 293 290 b 335 356 293 338 311 356 l 557 356 m 336 736 b 392 757 346 757 371 767 b 413 701 413 747 422 722 l 104 -18 b 49 -39 94 -39 69 -49 b 28 17 28 -29 18 -4 l 336 736 m 867 17 b 846 -39 876 -4 867 -29 b 790 -18 825 -49 800 -39 l 410 871 b 431 926 400 892 410 917 b 486 906 451 936 476 926 l 867 17 m 449 1272 b 549 1172 504 1272 549 1228 b 449 1072 549 1117 504 1072 b 349 1172 393 1072 349 1117 b 449 1272 349 1228 393 1272 m 432 1172 b 449 1156 432 1163 439 1156 b 465 1172 458 1156 465 1163 b 449 1189 465 1182 458 1189 b 432 1172 439 1189 432 1182 "},"":{"ha":1500,"x_min":0,"x_max":0,"o":"m 706 356 b 747 314 729 356 747 338 b 706 272 747 290 729 272 l 489 272 b 447 314 465 272 447 290 b 489 356 447 338 465 356 l 706 356 m 682 794 b 742 800 697 813 724 815 b 747 740 760 785 763 758 l 99 -26 b 39 -32 83 -44 57 -47 b 33 28 21 -17 18 10 l 682 794 m 946 438 b 904 479 922 438 904 456 b 946 521 904 503 922 521 l 1304 521 b 1346 479 1328 521 1346 503 b 1304 438 1346 456 1328 438 l 946 438 m 943 -40 b 901 1 919 -40 901 -22 b 943 43 901 25 919 43 l 1388 43 b 1429 1 1411 43 1429 25 b 1388 -40 1429 -22 1411 -40 l 943 -40 m 785 890 b 826 932 785 914 803 932 b 868 890 850 932 868 914 l 868 1 b 826 -40 868 -22 850 -40 b 785 1 803 -40 785 -22 l 785 890 m 1386 932 b 1428 890 1410 932 1428 914 b 1386 849 1428 867 1410 849 l 946 849 b 904 890 922 849 904 867 b 946 932 904 914 922 932 l 1386 932 "},"":{"ha":894,"x_min":0,"x_max":0,"o":"m 496 -39 b 490 -39 494 -39 492 -39 b 265 29 411 -37 332 -14 b 106 204 197 72 142 133 b 50 422 71 272 53 347 b 50 440 50 428 50 433 b 89 644 50 510 63 579 b 265 864 124 732 183 811 b 492 931 332 907 411 931 l 492 931 b 718 864 572 931 651 907 b 731 806 738 851 743 825 b 672 793 718 786 692 781 b 492 846 626 822 564 846 l 492 846 b 311 793 419 846 357 822 b 167 610 238 744 192 672 b 133 439 144 556 133 497 b 133 425 133 433 133 429 b 181 242 136 361 151 297 b 311 97 211 183 257 132 b 493 42 365 63 429 43 l 499 42 b 749 146 583 42 678 75 b 808 146 765 163 792 163 b 808 86 825 129 825 103 b 500 -42 721 -1 604 -42 m 394 -236 b 393 -232 394 -235 394 -233 b 381 -226 389 -228 382 -226 b 378 -226 381 -226 379 -226 b 369 -228 375 -226 372 -226 b 322 -212 351 -233 333 -228 b 322 -164 311 -197 311 -179 l 375 -89 b 435 -79 389 -69 415 -65 b 444 -139 454 -93 458 -119 l 432 -157 b 451 -171 439 -161 446 -165 b 481 -236 469 -187 481 -210 l 481 -237 b 456 -301 481 -269 464 -292 b 404 -331 440 -318 421 -326 b 363 -336 390 -335 376 -336 b 340 -335 356 -336 349 -336 b 282 -318 319 -332 300 -326 b 261 -262 261 -308 251 -283 b 317 -242 271 -242 296 -232 b 353 -251 328 -247 340 -250 b 367 -251 358 -251 363 -251 b 386 -249 374 -251 381 -250 b 400 -240 389 -247 396 -244 b 403 -235 401 -239 403 -236 "},"":{"ha":849,"x_min":0,"x_max":0,"o":"m 279 436 b 238 478 256 436 238 454 b 279 519 238 501 256 519 l 638 519 b 679 478 661 519 679 501 b 638 436 679 454 661 436 l 279 436 m 276 -42 b 235 0 253 -42 235 -24 b 276 42 235 24 253 42 l 721 42 b 763 0 744 42 763 24 b 721 -42 763 -24 744 -42 l 276 -42 m 118 889 b 160 931 118 913 136 931 b 201 889 183 931 201 913 l 201 0 b 160 -42 201 -24 183 -42 b 118 0 136 -42 118 -24 l 118 889 m 719 931 b 761 889 743 931 761 913 b 719 847 761 865 743 847 l 279 847 b 238 889 256 847 238 865 b 279 931 238 913 256 931 l 719 931 m 493 1146 b 499 1086 511 1131 514 1104 b 439 1081 483 1068 457 1065 b 324 1226 399 1115 354 1164 b 343 1282 314 1247 322 1272 b 399 1263 364 1292 389 1283 b 494 1144 424 1214 460 1174 "},"":{"ha":849,"x_min":0,"x_max":0,"o":"m 279 436 b 238 478 256 436 238 454 b 279 519 238 501 256 519 l 638 519 b 679 478 661 519 679 501 b 638 436 679 454 661 436 l 279 436 m 276 -42 b 235 0 253 -42 235 -24 b 276 42 235 24 253 42 l 721 42 b 763 0 744 42 763 24 b 721 -42 763 -24 744 -42 l 276 -42 m 118 889 b 160 931 118 913 136 931 b 201 889 183 931 201 913 l 201 0 b 160 -42 201 -24 183 -42 b 118 0 136 -42 118 -24 l 118 889 m 719 931 b 761 889 743 931 761 913 b 719 847 761 865 743 847 l 279 847 b 238 889 256 847 238 865 b 279 931 238 913 256 931 l 719 931 m 467 1079 b 407 1085 449 1064 422 1067 b 413 1144 392 1103 394 1129 b 508 1263 447 1174 483 1214 b 564 1282 518 1283 543 1292 b 583 1226 585 1272 593 1247 b 468 1081 553 1164 508 1115 "},"":{"ha":849,"x_min":0,"x_max":0,"o":"m 279 436 b 238 478 256 436 238 454 b 279 519 238 501 256 519 l 638 519 b 679 478 661 519 679 501 b 638 436 679 454 661 436 l 279 436 m 276 -42 b 235 0 253 -42 235 -24 b 276 42 235 24 253 42 l 721 42 b 763 0 744 42 763 24 b 721 -42 763 -24 744 -42 l 276 -42 m 118 889 b 160 931 118 913 136 931 b 201 889 183 931 201 913 l 201 0 b 160 -42 201 -24 183 -42 b 118 0 136 -42 118 -24 l 118 889 m 719 931 b 761 889 743 931 761 913 b 719 847 761 865 743 847 l 279 847 b 238 889 256 847 238 865 b 279 931 238 913 256 931 l 719 931 m 417 1268 b 450 1285 425 1279 436 1285 b 483 1268 464 1285 475 1279 l 583 1136 b 575 1078 597 1118 593 1092 b 517 1086 557 1064 531 1068 l 450 1175 l 382 1086 b 324 1079 368 1068 342 1065 b 317 1138 306 1093 303 1119 l 418 1269 "},"":{"ha":849,"x_min":0,"x_max":0,"o":"m 279 436 b 238 478 256 436 238 454 b 279 519 238 501 256 519 l 638 519 b 679 478 661 519 679 501 b 638 436 679 454 661 436 l 279 436 m 276 -42 b 235 0 253 -42 235 -24 b 276 42 235 24 253 42 l 721 42 b 763 0 744 42 763 24 b 721 -42 763 -24 744 -42 l 276 -42 m 118 889 b 160 931 118 913 136 931 b 201 889 183 931 201 913 l 201 0 b 160 -42 201 -24 183 -42 b 118 0 136 -42 118 -24 l 118 889 m 719 931 b 761 889 743 931 761 913 b 719 847 761 865 743 847 l 279 847 b 238 889 256 847 238 865 b 279 931 238 913 256 931 l 719 931 m 531 1206 b 583 1153 557 1206 583 1185 b 531 1100 583 1126 563 1100 b 478 1153 504 1100 478 1121 b 531 1206 478 1179 499 1206 m 381 1206 b 433 1153 407 1206 433 1185 b 381 1100 433 1126 413 1100 b 328 1153 354 1100 328 1121 b 381 1206 328 1179 349 1206 "},"":{"ha":319,"x_min":0,"x_max":0,"o":"m 118 889 b 160 931 118 913 136 931 b 201 889 183 931 201 913 l 201 0 b 160 -42 201 -24 183 -42 b 118 0 136 -42 118 -24 l 118 889 m 231 1146 b 236 1086 249 1131 251 1104 b 176 1081 221 1068 194 1065 b 61 1226 136 1115 92 1164 b 81 1282 51 1247 60 1272 b 136 1263 101 1292 126 1283 b 232 1144 161 1214 197 1174 "},"":{"ha":319,"x_min":0,"x_max":0,"o":"m 118 889 b 160 931 118 913 136 931 b 201 889 183 931 201 913 l 201 0 b 160 -42 201 -24 183 -42 b 118 0 136 -42 118 -24 l 118 889 m 161 1079 b 101 1085 143 1064 117 1067 b 107 1144 86 1103 89 1129 b 203 1263 142 1174 178 1214 b 258 1282 213 1283 238 1292 b 278 1226 279 1272 288 1247 b 163 1081 247 1164 203 1115 "},"":{"ha":319,"x_min":0,"x_max":0,"o":"m 118 889 b 160 931 118 913 136 931 b 201 889 183 931 201 913 l 201 0 b 160 -42 201 -24 183 -42 b 118 0 136 -42 118 -24 l 118 889 m 128 1268 b 161 1285 136 1279 147 1285 b 194 1268 175 1285 186 1279 l 294 1136 b 286 1078 308 1118 304 1092 b 228 1086 268 1064 242 1068 l 161 1175 l 93 1086 b 35 1079 79 1068 53 1065 b 28 1138 17 1093 14 1119 l 129 1269 "},"":{"ha":319,"x_min":0,"x_max":0,"o":"m 118 889 b 160 931 118 913 136 931 b 201 889 183 931 201 913 l 201 0 b 160 -42 201 -24 183 -42 b 118 0 136 -42 118 -24 l 118 889 m 231 1206 b 283 1153 257 1206 283 1185 b 231 1100 283 1126 263 1100 b 178 1153 204 1100 178 1121 b 231 1206 178 1179 199 1206 m 81 1206 b 133 1153 107 1206 133 1185 b 81 1100 133 1126 113 1100 b 28 1153 54 1100 28 1121 b 81 1206 28 1179 49 1206 "},"":{"ha":1017,"x_min":0,"x_max":0,"o":"m 653 482 b 694 440 676 482 694 464 b 653 399 694 417 676 399 l 479 399 b 438 440 456 399 438 417 b 479 482 438 464 456 482 l 654 482 m 221 482 b 263 440 244 482 263 464 b 221 399 263 417 244 399 l 47 399 b 6 440 24 399 6 417 b 47 482 6 464 24 482 l 222 482 m 504 933 b 568 928 525 932 547 931 b 718 879 619 919 671 904 b 842 776 765 854 808 819 b 919 617 879 729 904 674 b 940 444 935 560 940 501 l 940 442 b 919 265 940 383 935 324 b 836 99 903 206 876 147 b 657 -22 783 35 717 -3 b 554 -42 624 -33 589 -40 b 532 -42 547 -42 540 -42 b 511 -42 525 -42 519 -42 l 449 -42 b 407 0 425 -42 407 -24 b 449 42 407 24 425 42 l 514 42 b 532 42 521 42 526 42 b 550 42 539 42 544 42 b 632 57 578 43 606 49 b 772 151 678 72 731 101 b 840 286 804 189 826 236 b 860 439 854 335 860 386 l 860 442 b 842 593 860 493 854 544 b 779 722 829 640 808 685 b 682 803 753 756 719 783 b 558 842 644 822 603 835 b 506 847 540 844 524 846 l 458 847 b 417 889 435 847 417 865 b 458 931 417 913 435 931 l 507 931 m 289 892 b 331 933 289 915 307 933 b 372 892 354 933 372 915 l 372 3 b 331 -39 372 -21 354 -39 b 289 3 307 -39 289 -21 l 289 892 "},"":{"ha":921,"x_min":0,"x_max":0,"o":"m 804 278 b 763 236 804 254 786 236 b 721 278 739 236 721 254 l 721 889 b 763 931 721 913 739 931 b 804 889 786 931 804 913 l 804 278 m 126 865 b 139 924 114 885 119 911 b 197 911 158 936 185 931 l 799 22 b 786 -36 811 3 806 -24 b 728 -24 767 -49 740 -43 l 126 865 m 203 0 b 161 -42 203 -24 185 -42 b 119 0 138 -42 119 -24 l 119 611 b 161 653 119 635 138 653 b 203 611 185 653 203 635 l 203 0 m 660 1176 b 654 1144 658 1157 658 1157 b 650 1133 654 1142 653 1139 b 608 1085 640 1111 624 1094 b 550 1065 593 1075 574 1067 b 544 1065 549 1065 546 1065 b 493 1076 526 1065 508 1069 b 414 1132 458 1090 429 1119 b 388 1149 404 1140 396 1146 b 374 1153 382 1151 379 1153 b 369 1153 374 1153 371 1153 b 367 1153 369 1153 368 1153 b 350 1146 363 1153 354 1151 b 347 1136 347 1142 347 1138 b 347 1132 347 1135 347 1133 b 321 1079 354 1110 343 1086 b 268 1106 299 1072 275 1083 b 263 1138 264 1118 263 1128 b 281 1197 263 1158 268 1179 b 358 1240 285 1204 310 1236 b 367 1240 360 1240 365 1240 b 378 1240 367 1240 375 1240 b 418 1229 394 1239 399 1238 b 463 1200 428 1225 442 1217 b 519 1157 496 1172 500 1165 b 539 1153 526 1154 533 1153 l 540 1153 b 557 1158 547 1153 553 1156 b 567 1169 563 1161 565 1165 b 567 1172 571 1181 567 1172 b 568 1179 568 1175 568 1175 b 567 1183 568 1183 568 1179 b 600 1232 563 1206 578 1228 b 649 1199 622 1236 644 1221 b 651 1178 650 1194 651 1182 "},"":{"ha":1024,"x_min":0,"x_max":0,"o":"m 501 931 b 951 444 753 931 951 710 b 501 -42 951 179 753 -42 b 51 444 250 -42 51 179 b 501 931 51 710 250 931 m 133 444 b 500 42 133 219 300 42 b 867 444 700 42 867 219 b 500 847 867 669 700 847 b 133 444 300 847 133 669 m 536 1146 b 542 1086 554 1131 557 1104 b 482 1081 526 1068 500 1065 b 367 1226 442 1115 397 1164 b 386 1282 357 1247 365 1272 b 442 1263 407 1292 432 1283 b 538 1144 467 1214 503 1174 "},"":{"ha":1024,"x_min":0,"x_max":0,"o":"m 501 931 b 951 444 753 931 951 710 b 501 -42 951 179 753 -42 b 51 444 250 -42 51 179 b 501 931 51 710 250 931 m 133 444 b 500 42 133 219 300 42 b 867 444 700 42 867 219 b 500 847 867 669 700 847 b 133 444 300 847 133 669 m 490 1079 b 431 1085 472 1064 446 1067 b 436 1144 415 1103 418 1129 b 532 1263 471 1174 507 1214 b 588 1282 542 1283 567 1292 b 607 1226 608 1272 617 1247 b 492 1081 576 1164 532 1115 "},"":{"ha":1024,"x_min":0,"x_max":0,"o":"m 501 931 b 951 444 753 931 951 710 b 501 -42 951 179 753 -42 b 51 444 250 -42 51 179 b 501 931 51 710 250 931 m 133 444 b 500 42 133 219 300 42 b 867 444 700 42 867 219 b 500 847 867 669 700 847 b 133 444 300 847 133 669 m 465 1268 b 499 1285 474 1279 485 1285 b 532 1268 513 1285 524 1279 l 632 1136 b 624 1078 646 1118 642 1092 b 565 1086 606 1064 579 1068 l 499 1175 l 431 1086 b 372 1079 417 1068 390 1065 b 365 1138 354 1093 351 1119 l 467 1269 "},"":{"ha":1024,"x_min":0,"x_max":0,"o":"m 501 931 b 951 444 753 931 951 710 b 501 -42 951 179 753 -42 b 51 444 250 -42 51 179 b 501 931 51 710 250 931 m 133 444 b 500 42 133 219 300 42 b 867 444 700 42 867 219 b 500 847 867 669 700 847 b 133 444 300 847 133 669 "},"":{"ha":1024,"x_min":0,"x_max":0,"o":"m 501 931 b 951 444 753 931 951 710 b 501 -42 951 179 753 -42 b 51 444 250 -42 51 179 b 501 931 51 710 250 931 m 133 444 b 500 42 133 219 300 42 b 867 444 700 42 867 219 b 500 847 867 669 700 847 b 133 444 300 847 133 669 m 569 1206 b 622 1153 596 1206 622 1185 b 569 1100 622 1126 601 1100 b 517 1153 543 1100 517 1121 b 569 1206 517 1179 538 1206 m 419 1206 b 472 1153 446 1206 472 1185 b 419 1100 472 1126 451 1100 b 367 1153 393 1100 367 1121 b 419 1206 367 1179 388 1206 "},"":{"ha":711,"x_min":0,"x_max":0,"o":"m 633 28 b 631 -31 649 11 647 -15 b 572 -28 614 -46 588 -44 l 76 514 b 79 572 61 531 63 557 b 138 569 96 588 122 586 l 633 28 m 440 339 b 382 336 425 322 399 321 b 379 394 365 351 364 378 l 540 569 b 599 572 556 586 582 588 b 601 514 615 557 617 531 l 440 339 m 101 -29 b 43 -32 86 -46 60 -47 b 40 26 26 -17 25 10 l 243 244 b 301 247 258 261 285 263 b 304 189 318 232 319 206 l 101 -29 "},"":{"ha":1024,"x_min":0,"x_max":0,"o":"m 501 931 b 951 444 753 931 951 710 b 501 -42 951 179 753 -42 b 51 444 250 -42 51 179 b 501 931 51 710 250 931 m 133 444 b 500 42 133 219 300 42 b 867 444 700 42 867 219 b 500 847 867 669 700 847 b 133 444 300 847 133 669 m 467 204 b 414 176 460 182 436 169 b 386 229 392 183 379 207 l 536 704 b 589 732 543 726 567 739 b 617 679 611 725 624 701 l 467 204 "},"":{"ha":958,"x_min":0,"x_max":0,"o":"m 186 236 b 144 194 186 213 168 194 b 103 236 121 194 103 213 l 103 889 b 144 931 103 913 121 931 b 186 889 168 931 186 913 l 186 236 m 294 76 b 474 42 358 46 429 42 b 656 78 565 42 624 63 b 724 126 682 90 706 107 b 782 129 739 143 765 144 b 785 71 799 114 800 88 b 692 3 757 42 725 19 b 474 -42 653 -17 582 -42 b 257 3 388 -42 315 -25 b 164 71 224 19 192 42 b 167 129 149 88 150 114 b 225 126 183 144 210 143 b 293 78 243 107 267 90 m 765 888 b 807 929 765 911 783 929 b 849 888 831 929 849 911 l 849 235 b 807 193 849 211 831 193 b 765 235 783 193 765 211 l 765 888 m 521 1144 b 526 1085 539 1129 542 1103 b 467 1079 511 1067 485 1064 b 351 1225 426 1114 382 1163 b 371 1281 342 1246 350 1271 b 426 1261 392 1290 417 1282 b 522 1143 451 1213 488 1172 "},"":{"ha":958,"x_min":0,"x_max":0,"o":"m 186 236 b 144 194 186 213 168 194 b 103 236 121 194 103 213 l 103 889 b 144 931 103 913 121 931 b 186 889 168 931 186 913 l 186 236 m 294 76 b 474 42 358 46 429 42 b 656 78 565 42 624 63 b 724 126 682 90 706 107 b 782 129 739 143 765 144 b 785 71 799 114 800 88 b 692 3 757 42 725 19 b 474 -42 653 -17 582 -42 b 257 3 388 -42 315 -25 b 164 71 224 19 192 42 b 167 129 149 88 150 114 b 225 126 183 144 210 143 b 293 78 243 107 267 90 m 765 888 b 807 929 765 911 783 929 b 849 888 831 929 849 911 l 849 235 b 807 193 849 211 831 193 b 765 235 783 193 765 211 l 765 888 m 468 1078 b 408 1083 450 1063 424 1065 b 414 1143 393 1101 396 1128 b 510 1261 449 1172 485 1213 b 565 1281 519 1282 544 1290 b 585 1225 586 1271 594 1246 b 469 1079 554 1163 510 1114 "},"":{"ha":958,"x_min":0,"x_max":0,"o":"m 186 236 b 144 194 186 213 168 194 b 103 236 121 194 103 213 l 103 889 b 144 931 103 913 121 931 b 186 889 168 931 186 913 l 186 236 m 294 76 b 474 42 358 46 429 42 b 656 78 565 42 624 63 b 724 126 682 90 706 107 b 782 129 739 143 765 144 b 785 71 799 114 800 88 b 692 3 757 42 725 19 b 474 -42 653 -17 582 -42 b 257 3 388 -42 315 -25 b 164 71 224 19 192 42 b 167 129 149 88 150 114 b 225 126 183 144 210 143 b 293 78 243 107 267 90 m 765 888 b 807 929 765 911 783 929 b 849 888 831 929 849 911 l 849 235 b 807 193 849 211 831 193 b 765 235 783 193 765 211 l 765 888 m 442 1267 b 475 1283 450 1278 461 1283 b 508 1267 489 1283 500 1278 l 608 1135 b 600 1076 622 1117 618 1090 b 542 1085 582 1063 556 1067 l 475 1174 l 407 1085 b 349 1078 393 1067 367 1064 b 342 1136 331 1092 328 1118 l 443 1268 "},"":{"ha":958,"x_min":0,"x_max":0,"o":"m 186 236 b 144 194 186 213 168 194 b 103 236 121 194 103 213 l 103 889 b 144 931 103 913 121 931 b 186 889 168 931 186 913 l 186 236 m 294 76 b 474 42 358 46 429 42 b 656 78 565 42 624 63 b 724 126 682 90 706 107 b 782 129 739 143 765 144 b 785 71 799 114 800 88 b 692 3 757 42 725 19 b 474 -42 653 -17 582 -42 b 257 3 388 -42 315 -25 b 164 71 224 19 192 42 b 167 129 149 88 150 114 b 225 126 183 144 210 143 b 293 78 243 107 267 90 m 765 888 b 807 929 765 911 783 929 b 849 888 831 929 849 911 l 849 235 b 807 193 849 211 831 193 b 765 235 783 193 765 211 l 765 888 m 543 1204 b 596 1151 569 1204 596 1183 b 543 1099 596 1125 575 1099 b 490 1151 517 1099 490 1119 b 543 1204 490 1178 511 1204 m 393 1204 b 446 1151 419 1204 446 1183 b 393 1099 446 1125 425 1099 b 340 1151 367 1099 340 1119 b 393 1204 340 1178 361 1204 "},"":{"ha":915,"x_min":0,"x_max":0,"o":"m 496 0 b 454 -42 496 -24 478 -42 b 413 0 431 -42 413 -24 l 413 333 b 454 375 413 357 431 375 b 496 333 478 375 496 357 l 496 0 m 485 503 b 482 444 500 486 499 460 b 424 447 465 429 439 431 l 44 861 b 47 919 29 878 31 904 b 106 917 64 935 90 933 l 485 503 m 804 917 b 863 919 819 933 846 935 b 865 861 879 904 881 878 l 625 600 b 567 597 610 583 583 582 b 564 656 550 613 549 639 l 804 917 m 465 1079 b 406 1085 447 1064 421 1067 b 411 1144 390 1103 393 1129 b 507 1263 446 1174 482 1214 b 563 1282 517 1283 542 1292 b 582 1226 583 1272 592 1247 b 467 1081 551 1164 507 1115 "},"":{"ha":842,"x_min":0,"x_max":0,"o":"m 119 889 b 161 931 119 913 138 931 b 203 889 185 931 203 913 l 203 0 b 161 -42 203 -24 185 -42 b 119 0 138 -42 119 -24 l 119 889 m 503 822 b 778 536 693 822 778 686 b 519 265 778 363 664 265 l 306 265 b 264 307 282 265 264 283 b 306 349 264 331 282 349 l 519 349 b 694 536 625 349 694 417 b 503 739 694 626 656 739 l 301 739 b 260 781 278 739 260 757 b 301 822 260 804 278 822 l 503 822 "},"":{"ha":940,"x_min":0,"x_max":0,"o":"m 788 257 b 457 -42 788 68 660 -42 l 357 -42 b 315 0 333 -42 315 -24 b 357 42 315 24 333 42 l 457 42 b 704 257 575 42 704 85 l 704 258 b 646 414 704 333 679 385 b 642 474 628 429 626 456 b 701 478 657 492 683 493 b 789 258 757 429 789 351 m 200 108 b 200 99 200 107 200 103 b 193 31 200 85 200 57 b 189 19 193 31 192 26 b 183 7 188 15 188 14 b 175 -6 182 6 179 0 b 90 -42 151 -33 124 -42 b 71 -42 83 -42 76 -42 b -31 76 11 -37 -31 21 b 11 118 -31 100 -12 118 b 53 76 35 118 53 100 b 78 42 53 57 68 42 b 92 42 81 42 86 42 b 113 47 104 42 108 43 b 113 47 113 47 111 43 l 114 49 b 114 50 114 49 114 49 b 118 96 117 58 118 68 b 118 107 118 101 118 106 l 118 888 b 160 929 118 911 136 929 b 201 888 183 929 201 911 m 436 931 b 707 686 643 931 707 807 b 436 460 707 556 611 460 l 363 460 b 321 501 339 460 321 478 b 363 543 321 525 339 543 l 436 543 b 624 686 563 543 624 603 b 436 847 624 779 579 847 l 356 847 b 314 889 332 847 314 865 b 356 931 314 913 332 931 l 436 931 "},"":{"ha":908,"x_min":0,"x_max":0,"o":"m 492 1146 b 497 1086 510 1131 513 1104 b 438 1081 482 1068 456 1065 b 322 1226 397 1115 353 1164 b 342 1282 313 1247 321 1272 b 397 1263 363 1292 388 1283 b 493 1144 422 1214 458 1174 m 556 357 b 597 315 579 357 597 339 b 556 274 597 292 579 274 l 333 274 b 292 315 310 274 292 292 b 333 357 292 339 310 357 l 556 357 m 335 738 b 390 758 344 758 369 768 b 411 703 411 749 421 724 l 103 -17 b 47 -37 93 -37 68 -47 b 26 18 26 -28 17 -3 l 335 738 m 865 18 b 844 -37 875 -3 865 -28 b 789 -17 824 -47 799 -37 l 408 872 b 429 928 399 893 408 918 b 485 907 450 938 475 928 l 865 18 "},"":{"ha":908,"x_min":0,"x_max":0,"o":"m 467 1079 b 407 1085 449 1064 422 1067 b 413 1144 392 1103 394 1129 b 508 1263 447 1174 483 1214 b 564 1282 518 1283 543 1292 b 583 1226 585 1272 593 1247 b 468 1081 553 1164 508 1115 m 556 353 b 597 311 579 353 597 335 b 556 269 597 288 579 269 l 333 269 b 292 311 310 269 292 288 b 333 353 292 335 310 353 l 556 353 m 335 733 b 390 754 344 754 369 764 b 411 699 411 744 421 719 l 103 -21 b 47 -42 93 -42 68 -51 b 26 14 26 -32 17 -7 l 335 733 m 865 14 b 844 -42 875 -7 865 -32 b 789 -21 824 -51 799 -42 l 408 868 b 429 924 399 889 408 914 b 485 903 450 933 475 924 l 865 14 "},"":{"ha":908,"x_min":0,"x_max":0,"o":"m 417 1268 b 450 1285 425 1279 436 1285 b 483 1268 464 1285 475 1279 l 583 1136 b 575 1078 597 1118 593 1092 b 517 1086 557 1064 531 1068 l 450 1175 l 382 1086 b 324 1079 368 1068 342 1065 b 317 1138 306 1093 303 1119 l 418 1269 m 556 353 b 597 311 579 353 597 335 b 556 269 597 288 579 269 l 333 269 b 292 311 310 269 292 288 b 333 353 292 335 310 353 l 556 353 m 335 733 b 390 754 344 754 369 764 b 411 699 411 744 421 719 l 103 -21 b 47 -42 93 -42 68 -51 b 26 14 26 -32 17 -7 l 335 733 m 865 14 b 844 -42 875 -7 865 -32 b 789 -21 824 -51 799 -42 l 408 868 b 429 924 399 889 408 914 b 485 903 450 933 475 924 l 865 14 "},"":{"ha":908,"x_min":0,"x_max":0,"o":"m 658 1176 b 653 1144 657 1157 657 1157 b 649 1133 653 1142 651 1139 b 607 1085 639 1111 622 1094 b 549 1065 592 1075 572 1067 b 543 1065 547 1065 544 1065 b 492 1076 525 1065 507 1069 b 413 1132 457 1090 428 1119 b 386 1149 403 1140 394 1146 b 372 1153 381 1151 378 1153 b 368 1153 372 1153 369 1153 b 365 1153 368 1153 367 1153 b 349 1146 361 1153 353 1151 b 346 1136 346 1142 346 1138 b 346 1132 346 1135 346 1133 b 319 1079 353 1110 342 1086 b 267 1106 297 1072 274 1083 b 261 1138 263 1118 261 1128 b 279 1197 261 1158 267 1179 b 357 1240 283 1204 308 1236 b 365 1240 358 1240 364 1240 b 376 1240 365 1240 374 1240 b 417 1229 393 1239 397 1238 b 461 1200 426 1225 440 1217 b 518 1157 494 1172 499 1165 b 538 1153 525 1154 532 1153 l 539 1153 b 556 1158 546 1153 551 1156 b 565 1169 561 1161 564 1165 b 565 1172 569 1181 565 1172 b 567 1179 567 1175 567 1175 b 565 1183 567 1183 567 1179 b 599 1232 561 1206 576 1228 b 647 1199 621 1236 643 1221 b 650 1178 649 1194 650 1182 m 565 353 b 607 311 589 353 607 335 b 565 269 607 288 589 269 l 343 269 b 301 311 319 269 301 288 b 343 353 301 335 319 353 l 565 353 m 344 733 b 400 754 354 754 379 764 b 421 699 421 744 431 719 l 113 -21 b 57 -42 103 -42 78 -51 b 36 14 36 -32 26 -7 l 344 733 m 875 14 b 854 -42 885 -7 875 -32 b 799 -21 833 -51 808 -42 l 418 868 b 439 924 408 889 418 914 b 494 903 460 933 485 924 l 875 14 "},"":{"ha":908,"x_min":0,"x_max":0,"o":"m 531 1206 b 583 1153 557 1206 583 1185 b 531 1100 583 1126 563 1100 b 478 1153 504 1100 478 1121 b 531 1206 478 1179 499 1206 m 381 1206 b 433 1153 407 1206 433 1185 b 381 1100 433 1126 413 1100 b 328 1153 354 1100 328 1121 b 381 1206 328 1179 349 1206 m 557 356 b 599 314 581 356 599 338 b 557 272 599 290 581 272 l 335 272 b 293 314 311 272 293 290 b 335 356 293 338 311 356 l 557 356 m 336 736 b 392 757 346 757 371 767 b 413 701 413 747 422 722 l 104 -18 b 49 -39 94 -39 69 -49 b 28 17 28 -29 18 -4 l 336 736 m 867 17 b 846 -39 876 -4 867 -29 b 790 -18 825 -49 800 -39 l 410 871 b 431 926 400 892 410 917 b 486 906 451 936 476 926 l 867 17 "},"":{"ha":908,"x_min":0,"x_max":0,"o":"m 447 1272 b 547 1172 503 1272 547 1228 b 447 1072 547 1117 503 1072 b 347 1172 392 1072 347 1117 b 447 1272 347 1228 392 1272 m 431 1172 b 447 1156 431 1163 438 1156 b 464 1172 457 1156 464 1163 b 447 1189 464 1182 457 1189 b 431 1172 438 1189 431 1182 m 557 356 b 599 314 581 356 599 338 b 557 272 599 290 581 272 l 335 272 b 293 314 311 272 293 290 b 335 356 293 338 311 356 l 557 356 m 336 736 b 392 757 346 757 371 767 b 413 701 413 747 422 722 l 104 -18 b 49 -39 94 -39 69 -49 b 28 17 28 -29 18 -4 l 336 736 m 867 17 b 846 -39 876 -4 867 -29 b 790 -18 825 -49 800 -39 l 410 871 b 431 926 400 892 410 917 b 486 906 451 936 476 926 l 867 17 "},"":{"ha":1500,"x_min":0,"x_max":0,"o":"m 706 356 b 747 314 729 356 747 338 b 706 272 747 290 729 272 l 489 272 b 447 314 465 272 447 290 b 489 356 447 338 465 356 l 706 356 m 682 794 b 742 800 697 813 724 815 b 747 740 760 785 763 758 l 99 -26 b 39 -32 83 -44 57 -47 b 33 28 21 -17 18 10 l 682 794 m 946 438 b 904 479 922 438 904 456 b 946 521 904 503 922 521 l 1304 521 b 1346 479 1328 521 1346 503 b 1304 438 1346 456 1328 438 l 946 438 m 943 -40 b 901 1 919 -40 901 -22 b 943 43 901 25 919 43 l 1388 43 b 1429 1 1411 43 1429 25 b 1388 -40 1429 -22 1411 -40 l 943 -40 m 785 890 b 826 932 785 914 803 932 b 868 890 850 932 868 914 l 868 1 b 826 -40 868 -22 850 -40 b 785 1 803 -40 785 -22 l 785 890 m 1386 932 b 1428 890 1410 932 1428 914 b 1386 849 1428 867 1410 849 l 946 849 b 904 890 922 849 904 867 b 946 932 904 914 922 932 l 1386 932 "},"":{"ha":894,"x_min":0,"x_max":0,"o":"m 460 -172 b 458 -168 460 -171 460 -169 b 446 -162 454 -164 447 -162 b 443 -162 446 -162 444 -162 b 435 -164 440 -162 438 -162 b 388 -149 417 -169 399 -164 b 388 -100 376 -133 376 -115 l 429 -40 b 488 -44 449 -43 468 -44 b 493 -44 489 -44 492 -44 b 514 -44 500 -44 507 -44 b 507 -72 515 -54 513 -64 l 494 -90 b 514 -104 501 -94 508 -99 b 543 -169 532 -121 543 -143 l 543 -171 b 518 -235 543 -203 526 -225 b 467 -264 503 -251 483 -260 b 425 -269 453 -268 439 -269 b 403 -268 418 -269 411 -269 b 344 -251 382 -265 363 -260 b 324 -196 324 -242 314 -217 b 379 -175 333 -175 358 -165 b 415 -185 390 -181 403 -183 b 429 -185 421 -185 425 -185 b 449 -182 436 -185 443 -183 b 463 -174 451 -181 458 -178 b 465 -168 464 -172 465 -169 m 428 -40 b 263 22 369 -31 313 -10 b 103 197 194 65 139 126 b 47 415 68 265 50 340 b 47 433 47 421 47 426 b 86 638 47 503 60 572 b 263 857 121 725 181 804 b 489 924 329 900 408 924 l 489 924 b 715 857 569 924 649 900 b 728 799 735 844 740 818 b 669 786 715 779 689 774 b 489 839 624 815 561 839 l 489 839 b 308 786 417 839 354 815 b 164 603 235 738 189 665 b 131 432 142 549 131 490 b 131 418 131 426 131 422 b 178 235 133 354 149 290 b 308 90 208 176 254 125 b 490 35 363 56 426 36 l 496 35 b 746 139 581 35 675 68 b 806 139 763 156 789 156 b 806 79 822 122 822 96 b 515 -47 724 -3 615 -43 b 499 -18 514 -36 508 -25 b 439 -28 479 -4 453 -8 "},"":{"ha":849,"x_min":0,"x_max":0,"o":"m 492 1146 b 497 1086 510 1131 513 1104 b 438 1081 482 1068 456 1065 b 322 1226 397 1115 353 1164 b 342 1282 313 1247 321 1272 b 397 1263 363 1292 388 1283 b 493 1144 422 1214 458 1174 m 278 438 b 236 479 254 438 236 456 b 278 521 236 503 254 521 l 636 521 b 678 479 660 521 678 503 b 636 438 678 456 660 438 l 278 438 m 275 -40 b 233 1 251 -40 233 -22 b 275 43 233 25 251 43 l 719 43 b 761 1 743 43 761 25 b 719 -40 761 -22 743 -40 l 275 -40 m 117 890 b 158 932 117 914 135 932 b 200 890 182 932 200 914 l 200 1 b 158 -40 200 -22 182 -40 b 117 1 135 -40 117 -22 l 117 890 m 718 932 b 760 890 742 932 760 914 b 718 849 760 867 742 849 l 278 849 b 236 890 254 849 236 867 b 278 932 236 914 254 932 l 718 932 "},"":{"ha":849,"x_min":0,"x_max":0,"o":"m 467 1079 b 407 1085 449 1064 422 1067 b 413 1144 392 1103 394 1129 b 508 1263 447 1174 483 1214 b 564 1282 518 1283 543 1292 b 583 1226 585 1272 593 1247 b 468 1081 553 1164 508 1115 m 278 435 b 236 476 254 435 236 453 b 278 518 236 500 254 518 l 636 518 b 678 476 660 518 678 500 b 636 435 678 453 660 435 l 278 435 m 275 -43 b 233 -1 251 -43 233 -25 b 275 40 233 22 251 40 l 719 40 b 761 -1 743 40 761 22 b 719 -43 761 -25 743 -43 l 275 -43 m 117 888 b 158 929 117 911 135 929 b 200 888 182 929 200 911 l 200 -1 b 158 -43 200 -25 182 -43 b 117 -1 135 -43 117 -25 l 117 888 m 718 929 b 760 888 742 929 760 911 b 718 846 760 864 742 846 l 278 846 b 236 888 254 846 236 864 b 278 929 236 911 254 929 l 718 929 "},"":{"ha":849,"x_min":0,"x_max":0,"o":"m 417 1268 b 450 1285 425 1279 436 1285 b 483 1268 464 1285 475 1279 l 583 1136 b 575 1078 597 1118 593 1092 b 517 1086 557 1064 531 1068 l 450 1175 l 382 1086 b 324 1079 368 1068 342 1065 b 317 1138 306 1093 303 1119 l 418 1269 m 278 435 b 236 476 254 435 236 453 b 278 518 236 500 254 518 l 636 518 b 678 476 660 518 678 500 b 636 435 678 453 660 435 l 278 435 m 275 -43 b 233 -1 251 -43 233 -25 b 275 40 233 22 251 40 l 719 40 b 761 -1 743 40 761 22 b 719 -43 761 -25 743 -43 l 275 -43 m 117 888 b 158 929 117 911 135 929 b 200 888 182 929 200 911 l 200 -1 b 158 -43 200 -25 182 -43 b 117 -1 135 -43 117 -25 l 117 888 m 718 929 b 760 888 742 929 760 911 b 718 846 760 864 742 846 l 278 846 b 236 888 254 846 236 864 b 278 929 236 911 254 929 l 718 929 "},"":{"ha":849,"x_min":0,"x_max":0,"o":"m 531 1206 b 583 1153 557 1206 583 1185 b 531 1100 583 1126 563 1100 b 478 1153 504 1100 478 1121 b 531 1206 478 1179 499 1206 m 381 1206 b 433 1153 407 1206 433 1185 b 381 1100 433 1126 413 1100 b 328 1153 354 1100 328 1121 b 381 1206 328 1179 349 1206 m 279 436 b 238 478 256 436 238 454 b 279 519 238 501 256 519 l 638 519 b 679 478 661 519 679 501 b 638 436 679 454 661 436 l 279 436 m 276 -42 b 235 0 253 -42 235 -24 b 276 42 235 24 253 42 l 721 42 b 763 0 744 42 763 24 b 721 -42 763 -24 744 -42 l 276 -42 m 118 889 b 160 931 118 913 136 931 b 201 889 183 931 201 913 l 201 0 b 160 -42 201 -24 183 -42 b 118 0 136 -42 118 -24 l 118 889 m 719 931 b 761 889 743 931 761 913 b 719 847 761 865 743 847 l 279 847 b 238 889 256 847 238 865 b 279 931 238 913 256 931 l 719 931 "},"":{"ha":319,"x_min":0,"x_max":0,"o":"m 231 1146 b 236 1086 249 1131 251 1104 b 176 1081 221 1068 194 1065 b 61 1226 136 1115 92 1164 b 81 1282 51 1247 60 1272 b 136 1263 101 1292 126 1283 b 232 1144 161 1214 197 1174 m 117 890 b 158 932 117 914 135 932 b 200 890 182 932 200 914 l 200 1 b 158 -40 200 -22 182 -40 b 117 1 135 -40 117 -22 l 117 890 "},"":{"ha":319,"x_min":0,"x_max":0,"o":"m 161 1079 b 101 1085 143 1064 117 1067 b 107 1144 86 1103 89 1129 b 203 1263 142 1174 178 1214 b 258 1282 213 1283 238 1292 b 278 1226 279 1272 288 1247 b 163 1081 247 1164 203 1115 m 117 888 b 158 929 117 911 135 929 b 200 888 182 929 200 911 l 200 -1 b 158 -43 200 -25 182 -43 b 117 -1 135 -43 117 -25 l 117 888 "},"":{"ha":319,"x_min":0,"x_max":0,"o":"m 128 1268 b 161 1285 136 1279 147 1285 b 194 1268 175 1285 186 1279 l 294 1136 b 286 1078 308 1118 304 1092 b 228 1086 268 1064 242 1068 l 161 1175 l 93 1086 b 35 1079 79 1068 53 1065 b 28 1138 17 1093 14 1119 l 129 1269 m 117 888 b 158 929 117 911 135 929 b 200 888 182 929 200 911 l 200 -1 b 158 -43 200 -25 182 -43 b 117 -1 135 -43 117 -25 l 117 888 "},"":{"ha":319,"x_min":0,"x_max":0,"o":"m 231 1206 b 283 1153 257 1206 283 1185 b 231 1100 283 1126 263 1100 b 178 1153 204 1100 178 1121 b 231 1206 178 1179 199 1206 m 81 1206 b 133 1153 107 1206 133 1185 b 81 1100 133 1126 113 1100 b 28 1153 54 1100 28 1121 b 81 1206 28 1179 49 1206 m 118 889 b 160 931 118 913 136 931 b 201 889 183 931 201 913 l 201 0 b 160 -42 201 -24 183 -42 b 118 0 136 -42 118 -24 l 118 889 "},"":{"ha":1017,"x_min":0,"x_max":0,"o":"m 653 482 b 694 440 676 482 694 464 b 653 399 694 417 676 399 l 479 399 b 438 440 456 399 438 417 b 479 482 438 464 456 482 l 654 482 m 221 482 b 263 440 244 482 263 464 b 221 399 263 417 244 399 l 47 399 b 6 440 24 399 6 417 b 47 482 6 464 24 482 l 222 482 m 504 933 b 568 928 525 932 547 931 b 718 879 619 919 671 904 b 842 776 765 854 808 819 b 919 617 879 729 904 674 b 940 444 935 560 940 501 l 940 442 b 919 265 940 383 935 324 b 836 99 903 206 876 147 b 657 -22 783 35 717 -3 b 554 -42 624 -33 589 -40 b 532 -42 547 -42 540 -42 b 511 -42 525 -42 519 -42 l 449 -42 b 407 0 425 -42 407 -24 b 449 42 407 24 425 42 l 514 42 b 532 42 521 42 526 42 b 550 42 539 42 544 42 b 632 57 578 43 606 49 b 772 151 678 72 731 101 b 840 286 804 189 826 236 b 860 439 854 335 860 386 l 860 442 b 842 593 860 493 854 544 b 779 722 829 640 808 685 b 682 803 753 756 719 783 b 558 842 644 822 603 835 b 506 847 540 844 524 846 l 458 847 b 417 889 435 847 417 865 b 458 931 417 913 435 931 l 507 931 m 289 892 b 331 933 289 915 307 933 b 372 892 354 933 372 915 l 372 3 b 331 -39 372 -21 354 -39 b 289 3 307 -39 289 -21 l 289 892 "},"":{"ha":921,"x_min":0,"x_max":0,"o":"m 658 1176 b 653 1144 657 1157 657 1157 b 649 1133 653 1142 651 1139 b 607 1085 639 1111 622 1094 b 549 1065 592 1075 572 1067 b 543 1065 547 1065 544 1065 b 492 1076 525 1065 507 1069 b 413 1132 457 1090 428 1119 b 386 1149 403 1140 394 1146 b 372 1153 381 1151 378 1153 b 368 1153 372 1153 369 1153 b 365 1153 368 1153 367 1153 b 349 1146 361 1153 353 1151 b 346 1136 346 1142 346 1138 b 346 1132 346 1135 346 1133 b 319 1079 353 1110 342 1086 b 267 1106 297 1072 274 1083 b 261 1138 263 1118 261 1128 b 279 1197 261 1158 267 1179 b 357 1240 283 1204 308 1236 b 365 1240 358 1240 364 1240 b 376 1240 365 1240 374 1240 b 417 1229 393 1239 397 1238 b 461 1200 426 1225 440 1217 b 518 1157 494 1172 499 1165 b 538 1153 525 1154 532 1153 l 539 1153 b 556 1158 546 1153 551 1156 b 565 1169 561 1161 564 1165 b 565 1172 569 1181 565 1172 b 567 1179 567 1175 567 1175 b 565 1183 567 1183 567 1179 b 599 1232 561 1206 576 1228 b 647 1199 621 1236 643 1221 b 650 1178 649 1194 650 1182 m 813 276 b 771 235 813 253 794 235 b 729 276 747 235 729 253 l 729 888 b 771 929 729 911 747 929 b 813 888 794 929 813 911 l 813 276 m 135 864 b 147 922 122 883 128 910 b 206 910 167 935 193 929 l 807 21 b 794 -37 819 1 814 -25 b 736 -25 775 -50 749 -44 l 135 864 m 211 -1 b 169 -43 211 -25 193 -43 b 128 -1 146 -43 128 -25 l 128 610 b 169 651 128 633 146 651 b 211 610 193 651 211 633 l 211 -1 "},"":{"ha":1024,"x_min":0,"x_max":0,"o":"m 536 1146 b 542 1086 554 1131 557 1104 b 482 1081 526 1068 500 1065 b 367 1226 442 1115 397 1164 b 386 1282 357 1247 365 1272 b 442 1263 407 1292 432 1283 b 538 1144 467 1214 503 1174 m 500 932 b 950 446 751 932 950 711 b 500 -40 950 181 751 -40 b 50 446 249 -40 50 181 b 500 932 50 711 249 932 m 132 446 b 499 43 132 221 299 43 b 865 446 699 43 865 221 b 499 849 865 671 699 849 b 132 446 299 849 132 671 "},"":{"ha":1024,"x_min":0,"x_max":0,"o":"m 492 1079 b 432 1085 474 1064 447 1067 b 438 1144 417 1103 419 1129 b 533 1263 472 1174 508 1214 b 589 1282 543 1283 568 1292 b 608 1226 610 1272 618 1247 b 493 1081 578 1164 533 1115 m 500 928 b 950 442 751 928 950 707 b 500 -44 950 176 751 -44 b 50 442 249 -44 50 176 b 500 928 50 707 249 928 m 132 442 b 499 39 132 217 299 39 b 865 442 699 39 865 217 b 499 844 865 667 699 844 b 132 442 299 844 132 667 "},"":{"ha":1024,"x_min":0,"x_max":0,"o":"m 467 1268 b 500 1285 475 1279 486 1285 b 533 1268 514 1285 525 1279 l 633 1136 b 625 1078 647 1118 643 1092 b 567 1086 607 1064 581 1068 l 500 1175 l 432 1086 b 374 1079 418 1068 392 1065 b 367 1138 356 1093 353 1119 l 468 1269 m 500 928 b 950 442 751 928 950 707 b 500 -44 950 176 751 -44 b 50 442 249 -44 50 176 b 500 928 50 707 249 928 m 132 442 b 499 39 132 217 299 39 b 865 442 699 39 865 217 b 499 844 865 667 699 844 b 132 442 299 844 132 667 "},"":{"ha":1024,"x_min":0,"x_max":0,"o":"m 501 931 b 951 444 753 931 951 710 b 501 -42 951 179 753 -42 b 51 444 250 -42 51 179 b 501 931 51 710 250 931 m 133 444 b 500 42 133 219 300 42 b 867 444 700 42 867 219 b 500 847 867 669 700 847 b 133 444 300 847 133 669 "},"":{"ha":1024,"x_min":0,"x_max":0,"o":"m 569 1206 b 622 1153 596 1206 622 1185 b 569 1100 622 1126 601 1100 b 517 1153 543 1100 517 1121 b 569 1206 517 1179 538 1206 m 419 1206 b 472 1153 446 1206 472 1185 b 419 1100 472 1126 451 1100 b 367 1153 393 1100 367 1121 b 419 1206 367 1179 388 1206 m 501 931 b 951 444 753 931 951 710 b 501 -42 951 179 753 -42 b 51 444 250 -42 51 179 b 501 931 51 710 250 931 m 133 444 b 500 42 133 219 300 42 b 867 444 700 42 867 219 b 500 847 867 669 700 847 b 133 444 300 847 133 669 "},"":{"ha":308,"x_min":0,"x_max":0,"o":"m 239 349 b 281 307 263 349 281 331 b 239 265 281 283 263 265 l 65 265 b 24 307 42 265 24 283 b 65 349 24 331 42 349 l 240 349 m 165 667 b 258 574 217 667 258 625 b 165 481 258 522 217 481 b 72 574 114 481 72 522 b 165 667 72 625 114 667 m 165 144 b 258 51 217 144 258 103 b 165 -42 258 0 217 -42 b 72 51 114 -42 72 0 b 165 144 72 103 114 144 "},"":{"ha":1024,"x_min":0,"x_max":0,"o":"m 501 931 b 951 444 753 931 951 710 b 501 -42 951 179 753 -42 b 51 444 250 -42 51 179 b 501 931 51 710 250 931 m 133 444 b 500 42 133 219 300 42 b 867 444 700 42 867 219 b 500 847 867 669 700 847 b 133 444 300 847 133 669 m 467 204 b 414 176 460 182 436 169 b 386 229 392 183 379 207 l 536 704 b 589 732 543 726 567 739 b 617 679 611 725 624 701 l 467 204 "},"":{"ha":958,"x_min":0,"x_max":0,"o":"m 519 1146 b 525 1086 538 1131 540 1104 b 465 1081 510 1068 483 1065 b 350 1226 425 1115 381 1164 b 369 1282 340 1247 349 1272 b 425 1263 390 1292 415 1283 b 521 1144 450 1214 486 1174 m 185 238 b 143 196 185 214 167 196 b 101 238 119 196 101 214 l 101 890 b 143 932 101 914 119 932 b 185 890 167 932 185 914 l 185 238 m 293 78 b 472 43 357 47 428 43 b 654 79 564 43 622 64 b 722 128 681 92 704 108 b 781 131 738 144 764 146 b 783 72 797 115 799 89 b 690 4 756 43 724 21 b 472 -40 651 -15 581 -40 b 256 4 386 -40 314 -24 b 163 72 222 21 190 43 b 165 131 147 89 149 115 b 224 128 182 146 208 144 b 292 79 242 108 265 92 m 764 889 b 806 931 764 913 782 931 b 847 889 829 931 847 913 l 847 236 b 806 194 847 213 829 194 b 764 236 782 194 764 213 l 764 889 "},"":{"ha":958,"x_min":0,"x_max":0,"o":"m 467 1079 b 407 1085 449 1064 422 1067 b 413 1144 392 1103 394 1129 b 508 1263 447 1174 483 1214 b 564 1282 518 1283 543 1292 b 583 1226 585 1272 593 1247 b 468 1081 553 1164 508 1115 m 185 233 b 143 192 185 210 167 192 b 101 233 119 192 101 210 l 101 886 b 143 928 101 910 119 928 b 185 886 167 928 185 910 l 185 233 m 293 74 b 472 39 357 43 428 39 b 654 75 564 39 622 60 b 722 124 681 88 704 104 b 781 126 738 140 764 142 b 783 68 797 111 799 85 b 690 0 756 39 724 17 b 472 -44 651 -19 581 -44 b 256 0 386 -44 314 -28 b 163 68 222 17 190 39 b 165 126 147 85 149 111 b 224 124 182 142 208 140 b 292 75 242 104 265 88 m 764 885 b 806 926 764 908 782 926 b 847 885 829 926 847 908 l 847 232 b 806 190 847 208 829 190 b 764 232 782 190 764 208 l 764 885 "},"":{"ha":958,"x_min":0,"x_max":0,"o":"m 442 1268 b 475 1285 450 1279 461 1285 b 508 1268 489 1285 500 1279 l 608 1136 b 600 1078 622 1118 618 1092 b 542 1086 582 1064 556 1068 l 475 1175 l 407 1086 b 349 1079 393 1068 367 1065 b 342 1138 331 1093 328 1119 l 443 1269 m 186 233 b 144 192 186 210 168 192 b 103 233 121 192 103 210 l 103 886 b 144 928 103 910 121 928 b 186 886 168 928 186 910 l 186 233 m 294 74 b 474 39 358 43 429 39 b 656 75 565 39 624 60 b 724 124 682 88 706 104 b 782 126 739 140 765 142 b 785 68 799 111 800 85 b 692 0 757 39 725 17 b 474 -44 653 -19 582 -44 b 257 0 388 -44 315 -28 b 164 68 224 17 192 39 b 167 126 149 85 150 111 b 225 124 183 142 210 140 b 293 75 243 104 267 88 m 765 885 b 807 926 765 908 783 926 b 849 885 831 926 849 908 l 849 232 b 807 190 849 208 831 190 b 765 232 783 190 765 208 l 765 885 "},"":{"ha":958,"x_min":0,"x_max":0,"o":"m 542 1206 b 594 1153 568 1206 594 1185 b 542 1100 594 1126 574 1100 b 489 1153 515 1100 489 1121 b 542 1206 489 1179 510 1206 m 392 1206 b 444 1153 418 1206 444 1185 b 392 1100 444 1126 424 1100 b 339 1153 365 1100 339 1121 b 392 1206 339 1179 360 1206 m 186 236 b 144 194 186 213 168 194 b 103 236 121 194 103 213 l 103 889 b 144 931 103 913 121 931 b 186 889 168 931 186 913 l 186 236 m 294 76 b 474 42 358 46 429 42 b 656 78 565 42 624 63 b 724 126 682 90 706 107 b 782 129 739 143 765 144 b 785 71 799 114 800 88 b 692 3 757 42 725 19 b 474 -42 653 -17 582 -42 b 257 3 388 -42 315 -25 b 164 71 224 19 192 42 b 167 129 149 88 150 114 b 225 126 183 144 210 143 b 293 78 243 107 267 90 m 765 888 b 807 929 765 911 783 929 b 849 888 831 929 849 911 l 849 235 b 807 193 849 211 831 193 b 765 235 783 193 765 211 l 765 888 "},"":{"ha":915,"x_min":0,"x_max":0,"o":"m 467 1079 b 407 1085 449 1064 422 1067 b 413 1144 392 1103 394 1129 b 508 1263 447 1174 483 1214 b 564 1282 518 1283 543 1292 b 583 1226 585 1272 593 1247 b 468 1081 553 1164 508 1115 m 494 -1 b 453 -43 494 -25 476 -43 b 411 -1 429 -43 411 -25 l 411 332 b 453 374 411 356 429 374 b 494 332 476 374 494 356 l 494 -1 m 483 501 b 481 443 499 485 497 458 b 422 446 464 428 438 429 l 43 860 b 46 918 28 876 29 903 b 104 915 63 933 89 932 l 483 501 m 803 915 b 861 918 818 932 844 933 b 864 860 878 903 879 876 l 624 599 b 565 596 608 582 582 581 b 563 654 549 611 547 638 l 803 915 "},"":{"ha":842,"x_min":0,"x_max":0,"o":"m 119 889 b 161 931 119 913 138 931 b 203 889 185 931 203 913 l 203 0 b 161 -42 203 -24 185 -42 b 119 0 138 -42 119 -24 l 119 889 m 503 822 b 778 536 693 822 778 686 b 519 265 778 363 664 265 l 306 265 b 264 307 282 265 264 283 b 306 349 264 331 282 349 l 519 349 b 694 536 625 349 694 417 b 503 739 694 626 656 739 l 301 739 b 260 781 278 739 260 757 b 301 822 260 804 278 822 l 503 822 "},"":{"ha":915,"x_min":0,"x_max":0,"o":"m 496 0 b 454 -42 496 -24 478 -42 b 413 0 431 -42 413 -24 l 413 333 b 454 375 413 357 431 375 b 496 333 478 375 496 357 l 496 0 m 485 503 b 482 444 500 486 499 460 b 424 447 465 429 439 431 l 44 861 b 47 919 29 878 31 904 b 106 917 64 935 90 933 l 485 503 m 804 917 b 863 919 819 933 846 935 b 865 861 879 904 881 878 l 625 600 b 567 597 610 583 583 582 b 564 656 550 613 549 639 l 804 917 m 540 1206 b 593 1153 567 1206 593 1185 b 540 1100 593 1126 572 1100 b 488 1153 514 1100 488 1121 b 540 1206 488 1179 508 1206 m 390 1206 b 443 1153 417 1206 443 1185 b 390 1100 443 1126 422 1100 b 338 1153 364 1100 338 1121 b 390 1206 338 1179 358 1206 "},"":{"ha":1514,"x_min":0,"x_max":0,"o":"m 449 -40 b 443 -40 447 -40 444 -40 b 225 47 364 -32 288 -1 b 82 236 161 96 113 163 b 46 458 53 307 42 383 b 46 476 46 464 46 469 b 103 676 51 546 71 614 b 299 881 146 761 213 835 b 529 928 369 918 450 935 l 529 928 b 747 840 608 921 685 890 b 754 782 765 826 768 800 b 696 775 740 764 714 761 b 519 844 653 808 592 838 l 519 844 b 335 808 447 851 382 833 b 174 640 257 767 204 700 b 125 471 147 588 131 529 b 125 457 125 465 125 461 b 154 269 121 393 131 328 b 271 115 179 208 219 154 b 449 44 322 76 385 51 l 454 44 b 714 125 539 38 636 61 b 774 119 732 140 758 138 b 768 60 789 101 786 75 b 447 -39 672 -19 551 -49 m 964 435 b 922 476 940 435 922 453 b 964 518 922 500 940 518 l 1322 518 b 1364 476 1346 518 1364 500 b 1322 435 1364 453 1346 435 l 964 435 m 961 -43 b 919 -1 938 -43 919 -25 b 961 40 919 22 938 40 l 1406 40 b 1447 -1 1429 40 1447 22 b 1406 -43 1447 -25 1429 -43 l 961 -43 m 803 888 b 844 929 803 911 821 929 b 886 888 868 929 886 911 l 886 -1 b 844 -43 886 -25 868 -43 b 803 -1 821 -43 803 -25 l 803 888 m 1404 929 b 1446 888 1428 929 1446 911 b 1404 846 1446 864 1428 846 l 964 846 b 922 888 940 846 922 864 b 964 929 922 911 940 929 l 1404 929 "},"":{"ha":1514,"x_min":0,"x_max":0,"o":"m 449 -40 b 443 -40 447 -40 444 -40 b 225 47 364 -32 288 -1 b 82 236 161 96 113 163 b 46 458 53 307 42 383 b 46 476 46 464 46 469 b 103 676 51 546 71 614 b 299 881 146 761 213 835 b 529 928 369 918 450 935 l 529 928 b 747 840 608 921 685 890 b 754 782 765 826 768 800 b 696 775 740 764 714 761 b 519 844 653 808 592 838 l 519 844 b 335 808 447 851 382 833 b 174 640 257 767 204 700 b 125 471 147 588 131 529 b 125 457 125 465 125 461 b 154 269 121 393 131 328 b 271 115 179 208 219 154 b 449 44 322 76 385 51 l 454 44 b 714 125 539 38 636 61 b 774 119 732 140 758 138 b 768 60 789 101 786 75 b 447 -39 672 -19 551 -49 m 964 435 b 922 476 940 435 922 453 b 964 518 922 500 940 518 l 1322 518 b 1364 476 1346 518 1364 500 b 1322 435 1364 453 1346 435 l 964 435 m 961 -43 b 919 -1 938 -43 919 -25 b 961 40 919 22 938 40 l 1406 40 b 1447 -1 1429 40 1447 22 b 1406 -43 1447 -25 1429 -43 l 961 -43 m 803 888 b 844 929 803 911 821 929 b 886 888 868 929 886 911 l 886 -1 b 844 -43 886 -25 868 -43 b 803 -1 821 -43 803 -25 l 803 888 m 1404 929 b 1446 888 1428 929 1446 911 b 1404 846 1446 864 1428 846 l 964 846 b 922 888 940 846 922 864 b 964 929 922 911 940 929 l 1404 929 "}}}
